<svg id="svg" version="1.1" xmlns="http://www.w3.org/2000/svg" xmlns:xlink="http://www.w3.org/1999/xlink" width="400" height="400" viewBox="0, 0, 400,400"><g id="svgg"><path id="path0" d="M74.085 96.829 C 53.247 98.843,37.627 112.724,32.483 133.800 C 31.848 136.402,31.800 143.594,31.800 235.608 L 31.800 334.617 33.112 337.282 C 36.546 344.258,44.624 347.662,51.773 345.146 C 55.061 343.989,56.542 342.898,62.093 337.547 C 63.653 336.043,64.341 331.701,63.200 330.560 C 62.620 329.980,62.591 143.649,63.171 143.069 C 63.423 142.817,63.600 140.867,63.600 138.344 C 63.600 135.911,63.774 133.940,64.000 133.800 C 64.220 133.664,64.400 132.753,64.400 131.776 C 64.400 130.799,64.580 130.000,64.800 130.000 C 65.020 130.000,65.200 129.280,65.200 128.400 C 65.200 127.520,65.380 126.800,65.600 126.800 C 65.820 126.800,66.000 126.271,66.000 125.624 C 66.000 124.977,66.180 124.336,66.400 124.200 C 66.620 124.064,66.800 123.513,66.800 122.976 C 66.800 122.439,66.980 122.000,67.200 122.000 C 67.420 122.000,67.600 121.550,67.600 121.000 C 67.600 120.450,67.780 120.000,68.000 120.000 C 68.220 120.000,68.400 119.755,68.400 119.456 C 68.400 118.799,70.876 113.855,71.300 113.667 C 71.465 113.593,71.600 113.276,71.600 112.961 C 71.600 112.283,72.326 110.952,73.300 109.845 C 73.685 109.407,74.000 108.813,74.000 108.525 C 74.000 108.236,74.151 108.000,74.336 108.000 C 74.520 108.000,74.859 107.589,75.088 107.087 C 75.499 106.184,79.027 102.199,82.274 98.970 L 83.948 97.305 82.955 96.852 C 81.857 96.352,79.102 96.345,74.085 96.829 " stroke="none" fill="#cbe3f3" fill-rule="evenodd"></path><path id="path1" d="M72.254 158.997 C 71.624 159.329,70.859 159.600,70.554 159.600 C 70.249 159.600,70.000 159.780,70.000 160.000 C 70.000 160.220,69.726 160.400,69.391 160.400 C 68.591 160.400,64.629 164.380,63.522 166.296 C 62.482 168.095,62.126 181.175,63.108 181.503 C 63.379 181.593,63.600 182.012,63.600 182.433 C 63.600 182.855,63.768 183.200,63.973 183.200 C 64.178 183.200,64.466 183.577,64.612 184.038 C 64.905 184.960,67.870 188.000,68.477 188.000 C 68.686 188.000,69.136 188.279,69.477 188.620 C 69.818 188.960,70.615 189.343,71.248 189.470 C 71.882 189.596,72.400 189.839,72.400 190.010 C 72.400 190.745,77.643 190.906,101.600 190.906 C 125.972 190.906,130.800 190.749,130.800 189.960 C 130.800 189.762,131.034 189.600,131.320 189.600 C 132.056 189.600,133.993 188.659,133.997 188.300 C 133.999 188.135,134.256 188.000,134.569 188.000 C 135.268 188.000,138.291 184.973,138.617 183.947 C 138.747 183.536,139.022 183.200,139.227 183.200 C 139.432 183.200,139.600 182.840,139.600 182.400 C 139.600 181.960,139.736 181.600,139.903 181.600 C 141.178 181.600,141.677 172.004,140.567 168.816 C 139.397 165.454,135.300 160.400,133.746 160.400 C 133.446 160.400,133.200 160.220,133.200 160.000 C 133.200 159.780,132.876 159.600,132.480 159.600 C 132.084 159.600,131.535 159.375,131.260 159.100 C 130.438 158.278,73.808 158.179,72.254 158.997 M73.200 221.198 C 72.870 221.391,72.015 221.784,71.300 222.072 C 70.585 222.360,70.000 222.731,70.000 222.898 C 70.000 223.064,69.722 223.200,69.382 223.200 C 69.042 223.200,68.329 223.635,67.797 224.167 C 67.265 224.699,66.498 225.374,66.092 225.667 C 65.686 225.960,64.738 227.100,63.987 228.200 L 62.619 230.200 62.618 236.969 C 62.617 241.971,62.745 243.782,63.108 243.903 C 63.379 243.993,63.600 244.412,63.600 244.833 C 63.600 245.255,63.780 245.600,64.000 245.600 C 64.220 245.600,64.400 245.841,64.400 246.136 C 64.400 246.811,67.758 250.400,68.389 250.400 C 68.646 250.400,69.136 250.679,69.477 251.020 C 69.818 251.360,70.615 251.743,71.248 251.870 C 71.882 251.996,72.400 252.257,72.400 252.450 C 72.400 252.643,73.120 252.800,74.000 252.800 C 74.880 252.800,75.600 252.980,75.600 253.200 C 75.600 253.463,84.533 253.600,101.600 253.600 C 118.667 253.600,127.600 253.463,127.600 253.200 C 127.600 252.980,128.320 252.800,129.200 252.800 C 130.080 252.800,130.800 252.620,130.800 252.400 C 130.800 252.180,131.034 252.000,131.320 252.000 C 132.056 252.000,133.993 251.059,133.997 250.700 C 133.999 250.535,134.241 250.400,134.536 250.400 C 135.243 250.400,138.280 247.407,138.602 246.394 C 138.741 245.957,139.022 245.600,139.227 245.600 C 139.432 245.600,139.600 245.240,139.600 244.800 C 139.600 244.360,139.736 244.000,139.903 244.000 C 141.182 244.000,141.677 234.406,140.563 231.200 C 139.447 227.987,135.396 223.200,133.793 223.200 C 133.467 223.200,133.200 223.064,133.200 222.898 C 133.200 222.731,132.615 222.360,131.900 222.071 C 131.185 221.783,130.287 221.379,129.905 221.174 C 129.016 220.695,74.021 220.718,73.200 221.198 " stroke="none" fill="#fc5cf4" fill-rule="evenodd"></path><path id="path2" d="M348.800 22.000 C 348.800 22.229,347.600 22.400,346.000 22.400 C 344.400 22.400,343.200 22.571,343.200 22.800 C 343.200 23.020,342.390 23.200,341.400 23.200 C 340.410 23.200,339.600 23.380,339.600 23.600 C 339.600 23.820,339.060 24.000,338.400 24.000 C 337.740 24.000,337.200 24.156,337.200 24.348 C 337.200 24.539,336.610 24.791,335.890 24.908 C 334.293 25.167,327.600 28.343,327.600 28.842 C 327.600 29.039,327.358 29.200,327.062 29.200 C 326.766 29.200,326.198 29.560,325.800 30.000 C 325.402 30.440,324.927 30.800,324.744 30.800 C 323.716 30.800,197.200 157.343,197.200 158.371 C 197.200 158.570,197.058 158.793,196.885 158.867 C 196.712 158.940,195.947 159.804,195.185 160.786 C 194.423 161.768,193.473 162.938,193.074 163.386 C 192.674 163.834,192.069 164.785,191.728 165.500 C 191.387 166.215,190.949 166.800,190.754 166.800 C 190.559 166.800,190.400 167.120,190.400 167.512 C 190.400 167.903,190.040 168.483,189.600 168.800 C 189.160 169.117,188.800 169.657,188.800 170.000 C 188.800 170.343,188.440 170.883,188.000 171.200 C 187.560 171.517,187.200 172.097,187.200 172.488 C 187.200 172.880,187.020 173.200,186.800 173.200 C 186.580 173.200,186.400 173.436,186.400 173.725 C 186.400 174.013,186.075 174.598,185.678 175.025 C 185.280 175.451,184.697 176.385,184.380 177.100 C 184.064 177.815,183.669 178.400,183.502 178.400 C 183.336 178.400,183.200 178.760,183.200 179.200 C 183.200 179.640,183.020 180.000,182.800 180.000 C 182.580 180.000,182.400 180.360,182.400 180.800 C 182.400 181.240,182.220 181.600,182.000 181.600 C 181.780 181.600,181.600 181.960,181.600 182.400 C 181.600 182.840,181.420 183.200,181.200 183.200 C 180.980 183.200,180.800 183.560,180.800 184.000 C 180.800 184.440,180.620 184.800,180.400 184.800 C 180.180 184.800,180.000 185.160,180.000 185.600 C 180.000 186.040,179.820 186.400,179.600 186.400 C 179.380 186.400,179.200 186.749,179.200 187.176 C 179.200 187.603,179.020 188.064,178.800 188.200 C 178.580 188.336,178.400 188.887,178.400 189.424 C 178.400 189.961,178.220 190.400,178.000 190.400 C 177.780 190.400,177.600 190.672,177.600 191.004 C 177.600 191.337,177.263 192.372,176.850 193.304 C 175.824 195.626,174.800 199.092,174.800 200.246 C 174.800 200.771,174.620 201.200,174.400 201.200 C 174.180 201.200,174.000 201.819,174.000 202.576 C 174.000 203.333,173.820 204.064,173.600 204.200 C 173.380 204.336,173.200 204.977,173.200 205.624 C 173.200 206.271,173.020 206.800,172.800 206.800 C 172.580 206.800,172.400 207.610,172.400 208.600 C 172.400 209.590,172.220 210.400,172.000 210.400 C 171.780 210.400,171.600 211.300,171.600 212.400 C 171.600 213.500,171.420 214.400,171.200 214.400 C 170.974 214.400,170.800 215.541,170.800 217.024 C 170.800 218.671,170.651 219.555,170.400 219.400 C 170.145 219.242,170.000 220.463,170.000 222.776 C 170.000 224.925,169.837 226.400,169.600 226.400 C 169.348 226.400,169.200 229.067,169.200 233.600 C 169.200 238.133,169.348 240.800,169.600 240.800 C 169.820 240.800,170.000 241.340,170.000 242.000 C 170.000 242.660,170.180 243.200,170.400 243.200 C 170.620 243.200,170.800 243.560,170.800 244.000 C 170.800 244.440,170.980 244.800,171.200 244.800 C 171.420 244.800,171.600 245.081,171.600 245.424 C 171.600 246.136,176.466 251.200,177.150 251.200 C 177.398 251.200,177.600 251.380,177.600 251.600 C 177.600 251.820,177.949 252.000,178.376 252.000 C 178.803 252.000,179.264 252.180,179.400 252.400 C 179.536 252.620,180.256 252.800,181.000 252.800 C 181.744 252.800,182.464 252.980,182.600 253.200 C 182.931 253.735,192.400 253.735,192.400 253.200 C 192.400 252.958,194.133 252.800,196.800 252.800 C 199.467 252.800,201.200 252.642,201.200 252.400 C 201.200 252.175,202.325 252.000,203.776 252.000 C 205.193 252.000,206.464 251.820,206.600 251.600 C 206.736 251.380,207.726 251.200,208.800 251.200 C 209.874 251.200,210.864 251.020,211.000 250.800 C 211.136 250.580,211.957 250.400,212.824 250.400 C 213.691 250.400,214.400 250.220,214.400 250.000 C 214.400 249.780,215.120 249.600,216.000 249.600 C 216.880 249.600,217.600 249.420,217.600 249.200 C 217.600 248.980,218.230 248.800,219.000 248.800 C 219.770 248.800,220.400 248.620,220.400 248.400 C 220.400 248.180,220.929 248.000,221.576 248.000 C 222.223 248.000,222.864 247.820,223.000 247.600 C 223.136 247.380,223.687 247.200,224.224 247.200 C 224.761 247.200,225.200 247.020,225.200 246.800 C 225.200 246.580,225.740 246.400,226.400 246.400 C 227.060 246.400,227.600 246.220,227.600 246.000 C 227.600 245.780,228.140 245.600,228.800 245.600 C 229.460 245.600,230.000 245.420,230.000 245.200 C 230.000 244.980,230.360 244.800,230.800 244.800 C 231.240 244.800,231.600 244.620,231.600 244.400 C 231.600 244.180,232.140 244.000,232.800 244.000 C 233.460 244.000,234.000 243.820,234.000 243.600 C 234.000 243.380,234.360 243.200,234.800 243.200 C 235.240 243.200,235.600 243.020,235.600 242.800 C 235.600 242.580,235.960 242.400,236.400 242.400 C 236.840 242.400,237.200 242.220,237.200 242.000 C 237.200 241.780,237.469 241.600,237.797 241.600 C 238.631 241.600,241.600 240.277,241.600 239.906 C 241.600 239.738,241.960 239.600,242.400 239.600 C 242.840 239.600,243.200 239.420,243.200 239.200 C 243.200 238.980,243.560 238.800,244.000 238.800 C 244.440 238.800,244.800 238.620,244.800 238.400 C 244.800 238.180,245.160 238.000,245.600 238.000 C 246.040 238.000,246.400 237.820,246.400 237.600 C 246.400 237.380,246.636 237.200,246.925 237.200 C 247.213 237.200,247.836 236.840,248.308 236.400 C 248.780 235.960,249.362 235.600,249.600 235.600 C 249.838 235.600,250.420 235.240,250.892 234.800 C 251.364 234.360,251.987 234.000,252.275 234.000 C 252.564 234.000,252.800 233.820,252.800 233.600 C 252.800 233.380,253.025 233.197,253.300 233.193 C 253.810 233.185,255.803 231.716,257.494 230.100 C 258.012 229.605,258.626 229.200,258.858 229.200 C 259.089 229.200,259.783 228.660,260.400 228.000 C 261.017 227.340,261.684 226.800,261.882 226.800 C 262.081 226.800,262.904 226.215,263.711 225.500 C 264.518 224.785,265.761 223.750,266.473 223.200 C 267.184 222.650,271.039 218.960,275.039 215.000 C 279.039 211.040,283.997 206.154,286.056 204.143 C 288.115 202.131,291.803 198.441,294.252 195.943 C 296.701 193.444,300.391 189.753,302.452 187.741 C 304.513 185.728,308.382 181.858,311.049 179.141 C 313.716 176.423,317.406 172.733,319.249 170.941 C 321.092 169.148,324.784 165.458,327.453 162.741 C 330.121 160.023,333.991 156.154,336.053 154.143 C 338.114 152.131,341.803 148.441,344.252 145.943 C 346.701 143.444,350.391 139.753,352.452 137.741 C 354.513 135.728,358.382 131.858,361.049 129.141 C 363.716 126.423,367.406 122.733,369.249 120.941 C 371.092 119.148,374.776 115.458,377.435 112.741 C 380.094 110.023,383.530 106.630,385.069 105.200 C 386.609 103.770,388.749 101.430,389.825 100.000 C 390.901 98.570,391.920 97.340,392.090 97.267 C 392.261 97.193,392.400 96.871,392.400 96.550 C 392.400 96.229,392.760 95.580,393.200 95.108 C 393.640 94.636,394.000 94.013,394.000 93.725 C 394.000 93.436,394.180 93.200,394.400 93.200 C 394.620 93.200,394.800 92.840,394.800 92.400 C 394.800 91.960,394.946 91.600,395.125 91.600 C 395.304 91.600,395.698 90.970,396.000 90.200 C 396.302 89.430,396.696 88.800,396.875 88.800 C 397.054 88.800,397.200 88.260,397.200 87.600 C 397.200 86.940,397.380 86.400,397.600 86.400 C 397.820 86.400,398.000 85.950,398.000 85.400 C 398.000 84.850,398.180 84.400,398.400 84.400 C 398.620 84.400,398.800 83.785,398.800 83.033 C 398.800 82.282,399.025 81.592,399.300 81.500 C 399.685 81.371,399.800 78.551,399.800 69.200 C 399.800 59.849,399.685 57.028,399.300 56.900 C 399.025 56.808,398.800 56.208,398.800 55.567 C 398.800 54.925,398.620 54.400,398.400 54.400 C 398.180 54.400,398.000 53.860,398.000 53.200 C 398.000 52.540,397.820 52.000,397.600 52.000 C 397.380 52.000,397.200 51.728,397.200 51.395 C 397.200 51.062,397.020 50.432,396.800 49.995 C 396.580 49.558,396.220 48.842,396.000 48.405 C 395.780 47.968,395.600 47.421,395.600 47.189 C 395.600 46.957,395.240 46.380,394.800 45.908 C 394.360 45.436,394.000 44.813,394.000 44.525 C 394.000 44.236,393.820 44.000,393.600 44.000 C 393.380 44.000,393.200 43.770,393.200 43.488 C 393.200 43.207,392.840 42.717,392.400 42.400 C 391.960 42.083,391.600 41.518,391.600 41.145 C 391.600 40.338,382.308 30.800,381.521 30.800 C 381.222 30.800,380.717 30.440,380.400 30.000 C 380.083 29.560,379.586 29.200,379.295 29.200 C 379.004 29.200,378.380 28.840,377.908 28.400 C 377.436 27.960,376.813 27.600,376.525 27.600 C 376.236 27.600,376.000 27.420,376.000 27.200 C 376.000 26.980,375.764 26.800,375.475 26.800 C 375.186 26.800,374.017 26.350,372.877 25.800 C 371.737 25.250,370.454 24.800,370.026 24.800 C 369.597 24.800,369.136 24.620,369.000 24.400 C 368.864 24.180,368.223 24.000,367.576 24.000 C 366.929 24.000,366.400 23.820,366.400 23.600 C 366.400 23.380,365.590 23.200,364.600 23.200 C 363.610 23.200,362.800 23.020,362.800 22.800 C 362.800 22.571,361.600 22.400,360.000 22.400 C 358.400 22.400,357.200 22.229,357.200 22.000 C 357.200 21.759,355.533 21.600,353.000 21.600 C 350.467 21.600,348.800 21.759,348.800 22.000 M355.400 54.800 C 355.536 55.020,356.267 55.200,357.024 55.200 C 357.781 55.200,358.400 55.338,358.400 55.506 C 358.400 55.674,359.075 56.105,359.900 56.465 C 361.629 57.219,364.738 60.090,365.568 61.700 C 365.880 62.305,366.285 62.800,366.468 62.800 C 366.650 62.800,366.800 63.340,366.800 64.000 C 366.800 64.660,366.980 65.200,367.200 65.200 C 367.441 65.200,367.600 66.859,367.600 69.376 C 367.600 71.729,367.425 73.661,367.200 73.800 C 366.980 73.936,366.800 74.397,366.800 74.824 C 366.800 75.251,366.620 75.600,366.400 75.600 C 366.180 75.600,366.000 75.870,366.000 76.200 C 366.000 76.530,365.859 76.800,365.686 76.800 C 365.514 76.800,365.066 77.319,364.691 77.953 C 363.908 79.279,360.225 83.259,354.899 88.534 C 352.864 90.550,349.174 94.228,346.699 96.708 C 344.225 99.187,340.344 103.057,338.075 105.308 C 335.806 107.558,331.936 111.436,329.475 113.924 C 327.014 116.413,323.323 120.103,321.273 122.124 C 319.223 124.146,315.533 127.832,313.073 130.316 C 310.613 132.800,306.935 136.490,304.899 138.516 C 300.170 143.224,293.224 150.170,288.516 154.899 C 286.490 156.935,282.800 160.613,280.316 163.073 C 277.832 165.533,274.146 169.223,272.124 171.273 C 270.103 173.323,266.413 177.014,263.924 179.475 C 261.436 181.936,257.560 185.806,255.311 188.075 C 250.168 193.263,246.881 196.400,246.590 196.400 C 246.319 196.400,243.389 199.040,242.261 200.300 C 241.818 200.795,241.290 201.200,241.088 201.200 C 240.886 201.200,240.217 201.740,239.600 202.400 C 238.983 203.060,238.231 203.600,237.928 203.600 C 237.625 203.600,237.117 203.960,236.800 204.400 C 236.483 204.840,235.943 205.200,235.600 205.200 C 235.257 205.200,234.717 205.560,234.400 206.000 C 234.083 206.440,233.518 206.800,233.145 206.800 C 232.772 206.800,232.407 206.963,232.333 207.162 C 232.167 207.613,225.225 211.200,224.518 211.200 C 224.233 211.200,224.000 211.380,224.000 211.600 C 224.000 211.820,223.640 212.000,223.200 212.000 C 222.760 212.000,222.400 212.180,222.400 212.400 C 222.400 212.620,222.040 212.800,221.600 212.800 C 221.160 212.800,220.800 212.980,220.800 213.200 C 220.800 213.420,220.361 213.600,219.824 213.600 C 219.287 213.600,218.736 213.780,218.600 214.000 C 218.464 214.220,218.003 214.400,217.576 214.400 C 217.149 214.400,216.800 214.580,216.800 214.800 C 216.800 215.020,216.260 215.200,215.600 215.200 C 214.940 215.200,214.400 215.380,214.400 215.600 C 214.400 215.820,213.860 216.000,213.200 216.000 C 212.540 216.000,212.000 216.180,212.000 216.400 C 212.000 216.620,211.460 216.800,210.800 216.800 C 210.140 216.800,209.600 216.980,209.600 217.200 C 209.600 217.420,208.970 217.600,208.200 217.600 C 207.430 217.600,206.800 217.780,206.800 218.000 C 206.800 218.220,206.210 218.400,205.489 218.400 C 204.178 218.400,203.668 215.699,204.842 214.974 C 205.039 214.852,205.200 214.133,205.200 213.376 C 205.200 212.619,205.380 212.000,205.600 212.000 C 205.820 212.000,206.000 211.548,206.000 210.995 C 206.000 210.442,206.162 209.677,206.360 209.295 C 206.558 208.913,207.045 207.520,207.442 206.200 C 207.839 204.880,208.307 203.629,208.482 203.420 C 208.657 203.211,208.800 202.626,208.800 202.120 C 208.800 201.614,208.980 201.200,209.200 201.200 C 209.420 201.200,209.600 200.840,209.600 200.400 C 209.600 199.960,209.780 199.600,210.000 199.600 C 210.220 199.600,210.400 199.240,210.400 198.800 C 210.400 198.360,210.580 198.000,210.800 198.000 C 211.020 198.000,211.200 197.640,211.200 197.200 C 211.200 196.760,211.380 196.400,211.600 196.400 C 211.820 196.400,212.000 196.040,212.000 195.600 C 212.000 195.160,212.180 194.800,212.400 194.800 C 212.620 194.800,212.800 194.440,212.800 194.000 C 212.800 193.560,212.980 193.200,213.200 193.200 C 213.420 193.200,213.600 192.880,213.600 192.488 C 213.600 192.097,213.960 191.517,214.400 191.200 C 214.840 190.883,215.200 190.393,215.200 190.112 C 215.200 189.830,215.380 189.600,215.600 189.600 C 215.820 189.600,216.000 189.280,216.000 188.888 C 216.000 188.497,216.360 187.917,216.800 187.600 C 217.240 187.283,217.600 186.791,217.600 186.508 C 217.600 186.225,218.140 185.428,218.800 184.737 C 219.460 184.046,220.000 183.320,220.000 183.122 C 220.000 182.925,220.454 182.310,221.008 181.756 C 221.562 181.202,222.327 180.265,222.708 179.674 C 223.805 177.973,224.843 176.795,227.161 174.624 C 228.350 173.511,231.901 169.990,235.053 166.800 C 238.205 163.610,241.483 160.301,242.339 159.447 C 243.194 158.592,247.043 154.743,250.893 150.893 C 254.743 147.043,258.614 143.174,259.496 142.296 C 260.377 141.417,264.068 137.728,267.698 134.098 C 271.328 130.468,275.018 126.778,275.898 125.898 C 276.778 125.018,280.468 121.328,284.098 117.698 C 287.728 114.068,291.417 110.377,292.296 109.496 C 294.961 106.822,307.781 94.005,309.549 92.247 C 311.112 90.692,322.617 79.168,325.889 75.881 C 326.720 75.046,330.010 71.787,333.200 68.640 C 336.390 65.493,340.108 61.767,341.461 60.359 C 344.464 57.237,344.995 56.800,345.783 56.800 C 346.122 56.800,346.400 56.620,346.400 56.400 C 346.400 56.180,346.760 56.000,347.200 56.000 C 347.640 56.000,348.000 55.820,348.000 55.600 C 348.000 55.380,348.619 55.200,349.376 55.200 C 350.133 55.200,350.864 55.020,351.000 54.800 C 351.136 54.580,352.126 54.400,353.200 54.400 C 354.274 54.400,355.264 54.580,355.400 54.800 M68.400 64.800 C 68.400 65.026,67.267 65.200,65.800 65.200 C 64.333 65.200,63.200 65.374,63.200 65.600 C 63.200 65.820,62.390 66.000,61.400 66.000 C 60.410 66.000,59.600 66.180,59.600 66.400 C 59.600 66.620,58.970 66.800,58.200 66.800 C 57.430 66.800,56.800 66.980,56.800 67.200 C 56.800 67.420,56.080 67.600,55.200 67.600 C 54.320 67.600,53.600 67.780,53.600 68.000 C 53.600 68.220,53.161 68.400,52.624 68.400 C 52.087 68.400,51.536 68.580,51.400 68.800 C 51.264 69.020,50.803 69.200,50.376 69.200 C 49.949 69.200,49.600 69.380,49.600 69.600 C 49.600 69.820,49.060 70.000,48.400 70.000 C 47.740 70.000,47.200 70.180,47.200 70.400 C 47.200 70.620,46.840 70.800,46.400 70.800 C 45.960 70.800,45.600 70.980,45.600 71.200 C 45.600 71.420,45.240 71.600,44.800 71.600 C 44.360 71.600,44.000 71.780,44.000 72.000 C 44.000 72.220,43.640 72.400,43.200 72.400 C 42.760 72.400,42.400 72.580,42.400 72.800 C 42.400 73.020,42.130 73.200,41.800 73.200 C 41.470 73.200,41.200 73.380,41.200 73.600 C 41.200 73.820,40.840 74.000,40.400 74.000 C 39.960 74.000,39.600 74.180,39.600 74.400 C 39.600 74.620,39.285 74.813,38.900 74.829 C 38.515 74.845,37.660 75.200,37.000 75.617 C 36.340 76.034,35.277 76.670,34.638 77.030 C 33.998 77.390,33.109 78.026,32.662 78.443 C 32.215 78.859,31.685 79.200,31.485 79.200 C 31.285 79.200,30.617 79.740,30.000 80.400 C 29.383 81.060,28.728 81.600,28.544 81.600 C 28.202 81.600,16.000 93.873,16.000 94.217 C 16.000 94.322,15.460 94.972,14.800 95.663 C 14.140 96.354,13.600 97.079,13.600 97.276 C 13.600 97.473,13.240 98.020,12.800 98.492 C 12.360 98.964,12.000 99.587,12.000 99.875 C 12.000 100.164,11.858 100.400,11.684 100.400 C 11.510 100.400,10.867 101.387,10.257 102.593 C 9.646 103.799,8.978 104.890,8.773 105.017 C 8.568 105.143,8.400 105.597,8.400 106.024 C 8.400 106.451,8.220 106.800,8.000 106.800 C 7.780 106.800,7.600 107.160,7.600 107.600 C 7.600 108.040,7.420 108.400,7.200 108.400 C 6.980 108.400,6.800 108.850,6.800 109.400 C 6.800 109.950,6.620 110.400,6.400 110.400 C 6.180 110.400,6.000 110.760,6.000 111.200 C 6.000 111.640,5.820 112.000,5.600 112.000 C 5.380 112.000,5.200 112.360,5.200 112.800 C 5.200 113.240,5.020 113.600,4.800 113.600 C 4.580 113.600,4.400 114.140,4.400 114.800 C 4.400 115.460,4.220 116.000,4.000 116.000 C 3.780 116.000,3.600 116.540,3.600 117.200 C 3.600 117.860,3.420 118.400,3.200 118.400 C 2.980 118.400,2.800 118.940,2.800 119.600 C 2.800 120.260,2.620 120.800,2.400 120.800 C 2.180 120.800,2.000 121.520,2.000 122.400 C 2.000 123.280,1.820 124.000,1.600 124.000 C 1.380 124.000,1.200 124.705,1.200 125.567 C 1.200 126.464,0.987 127.204,0.700 127.300 C -0.036 127.545,-0.036 342.855,0.700 343.100 C 0.975 343.192,1.200 343.792,1.200 344.433 C 1.200 345.075,1.380 345.600,1.600 345.600 C 1.820 345.600,2.000 346.140,2.000 346.800 C 2.000 347.460,2.180 348.000,2.400 348.000 C 2.620 348.000,2.800 348.349,2.800 348.776 C 2.800 349.203,2.980 349.664,3.200 349.800 C 3.420 349.936,3.600 350.397,3.600 350.824 C 3.600 351.251,3.780 351.600,4.000 351.600 C 4.220 351.600,4.400 351.926,4.400 352.325 C 4.400 352.723,4.760 353.436,5.200 353.908 C 5.640 354.380,6.000 355.044,6.000 355.383 C 6.000 355.722,6.180 356.000,6.400 356.000 C 6.620 356.000,6.800 356.204,6.800 356.453 C 6.800 356.702,7.133 357.197,7.541 357.553 C 7.948 357.909,8.598 358.813,8.984 359.563 C 9.780 361.109,17.805 369.200,18.542 369.200 C 18.807 369.200,19.283 369.560,19.600 370.000 C 19.917 370.440,20.420 370.800,20.717 370.800 C 21.014 370.800,21.529 371.072,21.861 371.404 C 22.193 371.736,22.630 371.905,22.832 371.780 C 23.035 371.655,23.200 371.725,23.200 371.935 C 23.200 372.410,27.953 374.731,29.601 375.060 C 30.269 375.194,30.914 375.460,31.032 375.652 C 31.150 375.843,31.867 376.000,32.624 376.000 C 33.381 376.000,34.000 376.180,34.000 376.400 C 34.000 376.620,34.529 376.800,35.176 376.800 C 35.823 376.800,36.464 376.980,36.600 377.200 C 36.736 377.420,38.097 377.600,39.624 377.600 C 41.208 377.600,42.400 377.772,42.400 378.000 C 42.400 378.242,44.125 378.400,46.776 378.400 C 49.263 378.400,51.260 378.227,51.400 378.000 C 51.536 377.780,52.807 377.600,54.224 377.600 C 55.675 377.600,56.800 377.425,56.800 377.200 C 56.800 376.980,57.610 376.800,58.600 376.800 C 59.590 376.800,60.400 376.620,60.400 376.400 C 60.400 376.180,60.940 376.000,61.600 376.000 C 62.260 376.000,62.800 375.854,62.800 375.676 C 62.800 375.497,63.669 375.129,64.730 374.857 C 65.792 374.584,67.547 373.897,68.630 373.330 C 69.714 372.762,71.004 372.096,71.497 371.849 C 71.990 371.602,72.395 371.265,72.397 371.100 C 72.399 370.935,72.670 370.800,73.000 370.800 C 73.330 370.800,73.600 370.650,73.600 370.468 C 73.600 370.285,74.093 369.880,74.695 369.568 C 75.297 369.255,76.562 368.235,77.506 367.300 C 78.449 366.365,79.394 365.600,79.605 365.600 C 79.816 365.600,81.519 364.070,83.389 362.200 C 85.259 360.330,86.879 358.800,86.990 358.800 C 87.361 358.800,88.962 357.418,91.508 354.900 C 92.898 353.525,94.204 352.400,94.410 352.400 C 94.616 352.400,95.955 351.230,97.385 349.800 L 99.985 347.200 182.593 347.200 C 237.398 347.200,265.200 347.065,265.200 346.800 C 265.200 346.565,266.592 346.400,268.576 346.400 C 270.433 346.400,272.064 346.220,272.200 346.000 C 272.336 345.780,273.247 345.600,274.224 345.600 C 275.201 345.600,276.000 345.420,276.000 345.200 C 276.000 344.980,276.900 344.800,278.000 344.800 C 279.100 344.800,280.000 344.620,280.000 344.400 C 280.000 344.180,280.540 344.000,281.200 344.000 C 281.860 344.000,282.400 343.820,282.400 343.600 C 282.400 343.380,282.940 343.200,283.600 343.200 C 284.260 343.200,284.800 343.020,284.800 342.800 C 284.800 342.580,285.340 342.400,286.000 342.400 C 286.660 342.400,287.200 342.220,287.200 342.000 C 287.200 341.780,287.605 341.599,288.100 341.598 C 288.595 341.596,289.516 341.326,290.146 340.998 C 290.776 340.669,291.541 340.400,291.846 340.400 C 292.151 340.400,292.400 340.220,292.400 340.000 C 292.400 339.780,292.760 339.600,293.200 339.600 C 293.640 339.600,294.000 339.420,294.000 339.200 C 294.000 338.980,294.360 338.800,294.800 338.800 C 295.240 338.800,295.600 338.620,295.600 338.400 C 295.600 338.180,295.960 338.000,296.400 338.000 C 296.840 338.000,297.200 337.820,297.200 337.600 C 297.200 337.380,297.560 337.200,298.000 337.200 C 298.440 337.200,298.800 337.020,298.800 336.800 C 298.800 336.580,299.036 336.400,299.325 336.400 C 299.613 336.400,300.236 336.040,300.708 335.600 C 301.180 335.160,301.804 334.800,302.095 334.800 C 302.386 334.800,302.883 334.440,303.200 334.000 C 303.517 333.560,304.057 333.200,304.400 333.200 C 304.743 333.200,305.283 332.840,305.600 332.400 C 305.917 331.960,306.331 331.600,306.520 331.600 C 306.708 331.600,307.554 330.880,308.400 330.000 C 309.246 329.120,310.135 328.400,310.377 328.400 C 310.619 328.400,311.771 327.455,312.936 326.300 C 314.101 325.145,315.592 323.750,316.250 323.200 C 316.908 322.650,318.066 321.397,318.823 320.416 C 319.580 319.434,320.592 318.224,321.071 317.727 C 321.550 317.229,322.264 316.277,322.657 315.611 C 323.051 314.945,323.486 314.400,323.625 314.400 C 323.765 314.400,324.203 313.680,324.600 312.800 C 324.997 311.920,325.474 311.200,325.661 311.200 C 325.847 311.200,326.000 310.880,326.000 310.488 C 326.000 310.097,326.360 309.517,326.800 309.200 C 327.240 308.883,327.600 308.303,327.600 307.912 C 327.600 307.520,327.780 307.200,328.000 307.200 C 328.220 307.200,328.400 306.930,328.400 306.600 C 328.400 306.270,328.580 306.000,328.800 306.000 C 329.020 306.000,329.200 305.640,329.200 305.200 C 329.200 304.760,329.380 304.400,329.600 304.400 C 329.820 304.400,330.000 304.040,330.000 303.600 C 330.000 303.160,330.180 302.800,330.400 302.800 C 330.620 302.800,330.800 302.440,330.800 302.000 C 330.800 301.560,330.980 301.200,331.200 301.200 C 331.420 301.200,331.600 300.840,331.600 300.400 C 331.600 299.960,331.780 299.600,332.000 299.600 C 332.220 299.600,332.400 299.060,332.400 298.400 C 332.400 297.740,332.580 297.200,332.800 297.200 C 333.020 297.200,333.200 296.851,333.200 296.424 C 333.200 295.997,333.380 295.536,333.600 295.400 C 333.820 295.264,334.000 294.713,334.000 294.176 C 334.000 293.639,334.180 293.200,334.400 293.200 C 334.620 293.200,334.800 292.581,334.800 291.824 C 334.800 291.067,334.980 290.336,335.200 290.200 C 335.420 290.064,335.600 289.524,335.600 289.000 C 335.600 288.476,335.780 287.936,336.000 287.800 C 336.220 287.664,336.400 286.753,336.400 285.776 C 336.400 284.799,336.580 284.000,336.800 284.000 C 337.022 284.000,337.200 282.933,337.200 281.600 C 337.200 280.267,337.378 279.200,337.600 279.200 C 338.149 279.200,338.149 228.686,337.600 227.595 C 335.701 223.823,335.566 223.625,333.309 221.328 C 332.158 220.158,330.943 219.200,330.609 219.200 C 330.274 219.200,330.000 219.020,330.000 218.800 C 330.000 218.580,329.640 218.400,329.200 218.400 C 328.760 218.400,328.400 218.220,328.400 218.000 C 328.400 217.780,327.860 217.600,327.200 217.600 C 326.540 217.600,326.000 217.420,326.000 217.200 C 326.000 216.959,324.333 216.800,321.800 216.800 C 319.267 216.800,317.600 216.959,317.600 217.200 C 317.600 217.420,317.060 217.600,316.400 217.600 C 315.740 217.600,315.200 217.780,315.200 218.000 C 315.200 218.220,314.840 218.400,314.400 218.400 C 313.960 218.400,313.600 218.580,313.600 218.800 C 313.600 219.020,313.325 219.200,312.989 219.200 C 312.129 219.200,309.025 222.404,308.200 224.144 C 307.820 224.945,307.349 225.600,307.154 225.600 C 306.959 225.600,306.800 226.050,306.800 226.600 C 306.800 227.150,306.620 227.600,306.400 227.600 C 306.139 227.600,306.000 234.600,306.000 247.800 C 306.000 261.000,305.861 268.000,305.600 268.000 C 305.360 268.000,305.200 269.592,305.200 271.976 C 305.200 274.196,305.023 276.062,304.800 276.200 C 304.580 276.336,304.400 277.067,304.400 277.824 C 304.400 278.581,304.220 279.200,304.000 279.200 C 303.780 279.200,303.600 279.742,303.600 280.405 C 303.600 281.068,303.420 281.968,303.200 282.405 C 302.980 282.842,302.620 283.558,302.400 283.995 C 302.180 284.432,302.000 285.152,302.000 285.595 C 302.000 286.038,301.820 286.400,301.600 286.400 C 301.380 286.400,301.200 286.760,301.200 287.200 C 301.200 287.640,301.020 288.000,300.800 288.000 C 300.580 288.000,300.400 288.360,300.400 288.800 C 300.400 289.240,300.220 289.600,300.000 289.600 C 299.780 289.600,299.600 289.894,299.600 290.253 C 299.600 290.612,299.284 291.197,298.897 291.553 C 298.511 291.909,297.942 292.692,297.633 293.293 C 297.325 293.895,296.784 294.705,296.432 295.093 C 296.081 295.482,295.167 296.610,294.402 297.600 C 293.637 298.590,292.829 299.603,292.606 299.851 C 292.383 300.099,291.935 300.684,291.612 301.151 C 291.288 301.618,290.825 302.000,290.582 302.000 C 290.340 302.000,289.178 302.900,288.000 304.000 C 286.822 305.100,285.703 306.000,285.513 306.000 C 285.322 306.000,284.780 306.360,284.308 306.800 C 283.836 307.240,283.213 307.600,282.925 307.600 C 282.636 307.600,282.400 307.780,282.400 308.000 C 282.400 308.220,282.135 308.400,281.811 308.400 C 281.486 308.400,279.927 309.030,278.344 309.800 C 276.762 310.570,275.138 311.200,274.734 311.200 C 274.330 311.200,274.000 311.380,274.000 311.600 C 274.000 311.820,273.460 312.000,272.800 312.000 C 272.140 312.000,271.600 312.180,271.600 312.400 C 271.600 312.620,270.880 312.800,270.000 312.800 C 269.120 312.800,268.400 312.980,268.400 313.200 C 268.400 313.422,267.333 313.600,266.000 313.600 C 264.667 313.600,263.600 313.778,263.600 314.000 C 263.600 314.265,234.332 314.400,176.595 314.400 C 123.418 314.400,89.319 314.545,88.895 314.774 C 88.513 314.979,87.615 315.383,86.900 315.671 C 86.185 315.960,85.600 316.331,85.600 316.498 C 85.600 316.664,85.312 316.800,84.960 316.800 C 84.609 316.800,83.817 317.340,83.200 318.000 C 82.583 318.660,81.973 319.200,81.844 319.200 C 81.479 319.200,80.160 320.351,76.916 323.500 C 75.272 325.095,73.786 326.400,73.613 326.400 C 73.440 326.400,71.955 327.717,70.314 329.326 C 68.673 330.936,66.716 332.685,65.965 333.213 C 63.919 334.653,63.600 335.049,63.600 336.148 C 63.600 336.879,62.935 337.732,61.164 339.276 C 59.824 340.444,58.104 341.962,57.342 342.648 C 56.054 343.809,54.191 344.858,51.481 345.949 C 45.053 348.538,35.607 344.157,32.418 337.109 L 31.200 334.418 31.200 235.580 L 31.200 136.742 32.037 133.271 C 36.496 114.768,49.027 102.017,67.400 97.286 C 72.951 95.856,83.403 95.421,83.855 96.600 C 84.137 97.334,212.000 97.533,212.000 96.800 C 212.000 96.580,212.720 96.400,213.600 96.400 C 214.480 96.400,215.200 96.220,215.200 96.000 C 215.200 95.780,215.560 95.600,216.000 95.600 C 216.440 95.600,216.800 95.420,216.800 95.200 C 216.800 94.980,217.120 94.800,217.512 94.800 C 217.903 94.800,218.483 94.440,218.800 94.000 C 219.117 93.560,219.604 93.200,219.882 93.200 C 220.672 93.200,223.921 88.811,224.594 86.835 C 225.829 83.212,225.063 73.161,223.500 72.467 C 223.335 72.393,223.200 72.103,223.200 71.820 C 223.200 71.068,218.978 66.800,218.235 66.800 C 217.886 66.800,217.600 66.620,217.600 66.400 C 217.600 66.180,217.240 66.000,216.800 66.000 C 216.360 66.000,216.000 65.820,216.000 65.600 C 216.000 65.380,215.460 65.200,214.800 65.200 C 214.140 65.200,213.600 65.020,213.600 64.800 C 213.600 64.535,189.133 64.400,141.000 64.400 C 92.867 64.400,68.400 64.535,68.400 64.800 " stroke="none" fill="#0424c4" fill-rule="evenodd"></path><path id="path3" d="M80.000 96.363 C 81.430 96.493,82.825 96.746,83.100 96.924 C 83.375 97.102,83.600 97.078,83.600 96.870 C 83.600 96.309,82.075 96.004,79.600 96.068 L 77.400 96.126 80.000 96.363 M73.907 96.690 C 74.626 96.779,75.706 96.777,76.307 96.686 C 76.908 96.595,76.320 96.522,75.000 96.524 C 73.680 96.526,73.188 96.601,73.907 96.690 M68.800 97.213 C 68.154 97.429,68.580 97.466,70.000 97.319 C 71.210 97.194,72.275 97.026,72.367 96.946 C 72.687 96.665,69.791 96.883,68.800 97.213 M65.600 98.018 C 65.162 98.315,65.324 98.352,66.200 98.156 C 67.671 97.827,67.990 97.598,66.967 97.606 C 66.545 97.609,65.930 97.795,65.600 98.018 M53.900 103.029 C 52.405 103.840,52.496 104.178,54.000 103.400 C 54.660 103.059,55.200 102.694,55.200 102.590 C 55.200 102.332,55.157 102.347,53.900 103.029 M49.900 105.806 C 48.635 106.799,47.600 107.698,47.600 107.802 C 47.600 107.907,48.680 107.172,50.000 106.168 C 52.080 104.586,52.703 103.999,52.300 104.000 C 52.245 104.000,51.165 104.813,49.900 105.806 M44.590 110.410 C 43.289 111.725,42.347 112.800,42.496 112.800 C 42.829 112.800,47.243 108.310,47.075 108.142 C 47.009 108.075,45.890 109.096,44.590 110.410 M40.508 115.300 C 39.030 117.251,37.982 118.864,38.492 118.400 C 38.613 118.290,39.386 117.300,40.210 116.200 C 41.035 115.100,41.887 113.975,42.103 113.700 C 42.320 113.425,42.408 113.200,42.298 113.200 C 42.187 113.200,41.382 114.145,40.508 115.300 M33.073 129.753 C 32.923 130.145,32.811 130.766,32.825 131.133 C 32.842 131.575,32.981 131.474,33.237 130.834 C 33.449 130.303,33.561 129.682,33.485 129.454 C 33.409 129.227,33.224 129.361,33.073 129.753 M32.249 133.015 C 32.112 133.373,32.016 134.056,32.036 134.533 C 32.062 135.147,32.185 135.008,32.459 134.056 C 32.857 132.672,32.694 131.858,32.249 133.015 M31.454 137.856 C 31.111 140.360,31.184 333.217,31.528 334.085 C 31.678 334.462,31.800 290.047,31.800 235.385 C 31.800 180.723,31.779 136.000,31.754 136.000 C 31.729 136.000,31.594 136.835,31.454 137.856 M61.600 338.074 C 57.939 341.346,56.750 342.482,56.870 342.593 C 56.941 342.659,58.440 341.385,60.200 339.762 C 61.960 338.139,63.310 336.814,63.200 336.817 C 63.090 336.821,62.370 337.386,61.600 338.074 M33.976 339.539 C 34.926 341.272,40.499 345.635,41.054 345.080 C 41.170 344.964,40.575 344.545,39.732 344.151 C 38.890 343.756,37.168 342.408,35.907 341.155 C 34.645 339.902,33.776 339.175,33.976 339.539 M42.200 345.600 C 42.640 345.789,43.270 345.944,43.600 345.944 C 43.978 345.944,43.904 345.817,43.400 345.600 C 42.960 345.411,42.330 345.256,42.000 345.256 C 41.622 345.256,41.696 345.383,42.200 345.600 M50.400 345.600 C 49.867 345.945,49.867 345.988,50.400 345.988 C 50.730 345.988,51.270 345.813,51.600 345.600 C 52.133 345.255,52.133 345.212,51.600 345.212 C 51.270 345.212,50.730 345.387,50.400 345.600 M46.305 346.283 C 46.802 346.379,47.522 346.375,47.905 346.275 C 48.287 346.175,47.880 346.096,47.000 346.101 C 46.120 346.105,45.807 346.187,46.305 346.283 " stroke="none" fill="#6484dc" fill-rule="evenodd"></path><path id="path4" d="M72.000 96.388 C 71.450 96.557,72.440 96.605,74.200 96.493 C 75.960 96.382,77.475 96.225,77.567 96.145 C 77.884 95.868,72.995 96.081,72.000 96.388 M67.600 97.218 C 67.162 97.515,67.324 97.552,68.200 97.356 C 69.671 97.027,69.990 96.798,68.967 96.806 C 68.545 96.809,67.930 96.995,67.600 97.218 M55.794 101.641 C 54.917 102.103,54.020 102.662,53.800 102.883 C 53.580 103.104,54.345 102.796,55.500 102.200 C 56.655 101.604,57.600 101.045,57.600 100.958 C 57.600 100.707,57.477 100.753,55.794 101.641 M51.260 104.403 C 50.347 105.064,49.600 105.703,49.600 105.823 C 49.600 106.011,51.854 104.477,52.980 103.522 C 53.927 102.719,52.756 103.318,51.260 104.403 M47.838 107.000 C 47.199 107.550,46.852 108.000,47.068 108.000 C 47.284 108.000,47.883 107.550,48.400 107.000 C 49.605 105.718,49.329 105.718,47.838 107.000 M41.786 112.978 C 41.574 113.275,40.983 114.076,40.473 114.759 C 39.963 115.441,39.633 116.000,39.739 116.000 C 40.053 116.000,42.512 112.779,42.334 112.601 C 42.245 112.511,41.998 112.681,41.786 112.978 M38.153 118.100 C 36.776 120.436,36.686 120.635,37.387 119.800 C 38.200 118.832,38.900 117.600,38.638 117.600 C 38.533 117.600,38.315 117.825,38.153 118.100 M31.469 135.556 C 31.321 136.295,31.220 137.282,31.244 137.750 C 31.268 138.218,31.447 137.790,31.642 136.800 C 31.837 135.810,31.938 134.823,31.867 134.606 C 31.796 134.390,31.617 134.817,31.469 135.556 M60.800 339.156 C 58.495 341.423,58.427 341.530,60.200 340.101 C 62.323 338.390,63.836 336.859,63.564 336.698 C 63.474 336.644,62.230 337.750,60.800 339.156 M33.238 338.800 C 33.693 339.804,37.555 344.000,38.022 344.000 C 38.160 344.000,37.266 342.965,36.036 341.700 C 34.806 340.435,33.571 339.040,33.292 338.600 C 32.852 337.907,32.845 337.934,33.238 338.800 M55.211 343.820 C 53.384 345.109,54.013 345.092,55.914 343.800 C 56.723 343.250,57.209 342.809,56.993 342.820 C 56.777 342.830,55.975 343.280,55.211 343.820 M42.421 346.021 C 42.955 346.360,45.942 346.581,45.567 346.255 C 45.475 346.175,44.599 346.008,43.621 345.882 C 42.470 345.735,42.046 345.784,42.421 346.021 M48.900 346.276 C 49.285 346.376,49.915 346.376,50.300 346.276 C 50.685 346.175,50.370 346.093,49.600 346.093 C 48.830 346.093,48.515 346.175,48.900 346.276 " stroke="none" fill="#5870d8" fill-rule="evenodd"></path></g></svg>