<svg id="svg" version="1.1" xmlns="http://www.w3.org/2000/svg" xmlns:xlink="http://www.w3.org/1999/xlink" width="400" height="400" viewBox="0, 0, 400,400"><g id="svgg"><path id="path0" d="M54.600 50.000 C 54.464 50.220,53.834 50.400,53.200 50.400 C 52.566 50.400,51.936 50.580,51.800 50.800 C 51.664 51.020,51.124 51.200,50.600 51.200 C 50.076 51.200,49.536 51.380,49.400 51.600 C 49.264 51.820,48.713 52.000,48.176 52.000 C 47.639 52.000,47.200 52.180,47.200 52.400 C 47.200 52.620,46.840 52.800,46.400 52.800 C 45.960 52.800,45.600 52.980,45.600 53.200 C 45.600 53.420,45.240 53.600,44.800 53.600 C 44.360 53.600,44.000 53.780,44.000 54.000 C 44.000 54.220,43.770 54.400,43.488 54.400 C 43.207 54.400,42.717 54.760,42.400 55.200 C 42.083 55.640,41.587 56.000,41.298 56.000 C 41.010 56.000,40.143 56.630,39.373 57.400 C 38.603 58.170,37.814 58.800,37.619 58.800 C 37.226 58.800,34.000 61.803,34.000 62.168 C 34.000 62.295,33.280 63.141,32.400 64.048 C 31.520 64.955,30.800 65.945,30.800 66.248 C 30.800 66.552,30.642 66.800,30.449 66.800 C 30.255 66.800,29.873 67.340,29.600 68.000 C 29.327 68.660,28.945 69.200,28.751 69.200 C 28.558 69.200,28.400 69.560,28.400 70.000 C 28.400 70.440,28.220 70.800,28.000 70.800 C 27.780 70.800,27.600 71.149,27.600 71.576 C 27.600 72.003,27.420 72.464,27.200 72.600 C 26.980 72.736,26.800 73.287,26.800 73.824 C 26.800 74.361,26.653 74.800,26.473 74.800 C 25.180 74.800,24.126 89.193,25.263 91.318 C 25.865 92.442,26.633 93.200,27.171 93.200 C 27.407 93.200,27.600 93.380,27.600 93.600 C 27.600 93.862,36.333 94.000,53.000 94.000 C 69.667 94.000,78.400 93.862,78.400 93.600 C 78.400 93.380,78.683 93.200,79.029 93.200 C 81.475 93.200,82.227 88.932,80.438 85.200 C 78.723 81.622,80.004 81.827,57.933 81.600 C 47.226 81.490,38.335 81.269,38.176 81.110 C 37.714 80.647,39.887 75.159,41.476 72.775 C 49.778 60.315,69.804 58.582,80.611 69.389 C 83.932 72.711,86.246 77.001,86.975 81.193 C 87.293 83.020,87.274 322.916,86.956 325.000 C 85.170 336.694,76.296 344.000,63.880 344.000 C 51.368 344.000,42.031 338.094,38.732 328.094 C 37.555 324.528,36.021 324.800,57.326 324.800 C 77.702 324.800,77.540 324.815,79.480 322.710 C 80.942 321.124,82.374 315.200,81.295 315.200 C 81.127 315.200,80.812 314.795,80.595 314.300 C 80.378 313.805,79.795 313.222,79.300 313.005 C 78.805 312.788,78.400 312.473,78.400 312.305 C 78.400 312.137,66.970 312.000,53.000 312.000 C 36.333 312.000,27.600 312.138,27.600 312.400 C 27.600 312.620,27.396 312.800,27.147 312.800 C 26.513 312.800,25.224 314.366,24.946 315.475 C 24.004 319.227,25.786 333.306,27.282 333.933 C 27.457 334.007,27.600 334.412,27.600 334.833 C 27.600 335.255,27.780 335.600,28.000 335.600 C 28.220 335.600,28.400 335.960,28.400 336.400 C 28.400 336.840,28.536 337.200,28.702 337.200 C 28.869 337.200,29.235 337.720,29.516 338.355 C 29.797 338.990,30.561 340.068,31.214 340.751 C 31.866 341.434,32.400 342.164,32.400 342.374 C 32.400 342.893,37.539 348.000,38.062 348.000 C 38.291 348.000,38.983 348.540,39.600 349.200 C 40.217 349.860,41.009 350.400,41.360 350.400 C 41.712 350.400,42.000 350.580,42.000 350.800 C 42.000 351.020,42.270 351.200,42.600 351.200 C 42.930 351.200,43.200 351.380,43.200 351.600 C 43.200 351.820,43.470 352.000,43.800 352.000 C 44.130 352.000,44.401 352.135,44.403 352.300 C 44.407 352.706,46.386 353.600,47.280 353.600 C 47.676 353.600,48.000 353.780,48.000 354.000 C 48.000 354.220,48.272 354.400,48.605 354.400 C 48.938 354.400,49.523 354.562,49.905 354.761 C 50.287 354.960,51.410 355.332,52.400 355.588 C 53.390 355.844,54.753 356.222,55.428 356.427 C 57.170 356.956,301.073 356.929,301.400 356.400 C 301.536 356.180,302.042 355.997,302.524 355.994 C 303.481 355.987,306.220 355.113,306.659 354.674 C 306.810 354.523,307.353 354.400,307.867 354.400 C 308.380 354.400,308.800 354.220,308.800 354.000 C 308.800 353.780,309.160 353.600,309.600 353.600 C 310.040 353.600,310.400 353.420,310.400 353.200 C 310.400 352.980,310.760 352.800,311.200 352.800 C 311.640 352.800,312.000 352.620,312.000 352.400 C 312.000 352.180,312.236 352.000,312.525 352.000 C 312.813 352.000,313.436 351.640,313.908 351.200 C 314.380 350.760,314.911 350.400,315.087 350.400 C 316.277 350.400,325.192 341.318,325.198 340.100 C 325.199 339.825,325.380 339.600,325.600 339.600 C 325.820 339.600,326.000 339.330,326.000 339.000 C 326.000 338.670,326.180 338.400,326.400 338.400 C 326.620 338.400,326.800 338.130,326.800 337.800 C 326.800 337.470,326.980 337.200,327.200 337.200 C 327.420 337.200,327.600 336.840,327.600 336.400 C 327.600 335.960,327.780 335.600,328.000 335.600 C 328.220 335.600,328.400 335.240,328.400 334.800 C 328.400 334.360,328.580 334.000,328.800 334.000 C 329.020 334.000,329.200 333.638,329.200 333.195 C 329.200 332.752,329.408 331.987,329.662 331.495 C 330.685 329.516,330.800 329.164,330.800 328.005 C 330.800 327.342,330.980 326.800,331.200 326.800 C 331.464 326.800,331.600 314.733,331.600 291.400 C 331.600 268.067,331.464 256.000,331.200 256.000 C 330.980 256.000,330.800 255.717,330.800 255.371 C 330.800 254.563,329.837 253.600,329.029 253.600 C 328.683 253.600,328.400 253.397,328.400 253.149 C 328.400 252.404,324.800 252.963,322.632 254.044 C 318.759 255.976,319.033 253.302,318.774 291.600 C 318.649 309.970,318.403 325.540,318.226 326.200 C 317.220 329.947,314.765 334.125,311.909 336.947 C 308.308 340.506,305.512 341.981,299.354 343.574 C 297.559 344.038,92.745 344.211,92.282 343.749 C 92.144 343.611,92.526 342.756,93.131 341.849 C 94.103 340.392,95.423 337.816,96.437 335.400 C 96.958 334.158,98.255 329.656,98.856 327.000 C 99.662 323.443,99.667 82.792,98.861 79.800 C 97.799 75.857,95.382 69.970,94.700 69.667 C 94.535 69.593,94.400 69.322,94.400 69.064 C 94.400 68.806,93.410 67.295,92.200 65.707 C 90.990 64.119,90.000 62.724,90.000 62.608 C 90.000 62.267,298.882 62.605,300.200 62.948 C 308.362 65.074,314.237 70.579,317.116 78.800 L 318.166 81.800 318.383 110.000 C 318.550 131.658,318.717 138.405,319.105 139.084 C 319.865 140.412,322.143 142.000,323.289 142.000 C 323.846 142.000,324.526 142.270,324.800 142.600 C 325.359 143.273,326.800 143.417,326.800 142.800 C 326.800 142.580,327.078 142.400,327.417 142.400 C 328.608 142.400,330.800 140.148,330.800 138.925 C 330.800 138.416,330.980 138.000,331.200 138.000 C 331.463 138.000,331.600 128.733,331.600 111.000 C 331.600 93.267,331.463 84.000,331.200 84.000 C 330.978 84.000,330.800 82.933,330.800 81.600 C 330.800 80.267,330.622 79.200,330.400 79.200 C 330.180 79.200,330.000 78.581,330.000 77.824 C 330.000 77.067,329.820 76.336,329.600 76.200 C 329.380 76.064,329.200 75.513,329.200 74.976 C 329.200 74.439,329.020 74.000,328.800 74.000 C 328.580 74.000,328.400 73.640,328.400 73.200 C 328.400 72.760,328.220 72.400,328.000 72.400 C 327.780 72.400,327.600 72.166,327.600 71.880 C 327.600 71.144,326.659 69.207,326.300 69.203 C 326.135 69.201,326.000 68.840,326.000 68.400 C 326.000 67.960,325.864 67.600,325.698 67.600 C 325.531 67.600,325.176 67.105,324.908 66.500 C 323.956 64.350,318.673 58.416,317.700 58.405 C 317.425 58.402,317.200 58.220,317.200 58.000 C 317.200 57.780,316.996 57.600,316.747 57.600 C 316.498 57.600,316.003 57.284,315.647 56.897 C 315.291 56.511,314.505 55.940,313.900 55.630 C 313.295 55.319,312.800 54.915,312.800 54.732 C 312.800 54.550,312.440 54.400,312.000 54.400 C 311.560 54.400,311.200 54.220,311.200 54.000 C 311.200 53.780,310.840 53.600,310.400 53.600 C 309.960 53.600,309.600 53.420,309.600 53.200 C 309.600 52.980,309.240 52.800,308.800 52.800 C 308.360 52.800,308.000 52.620,308.000 52.400 C 308.000 52.180,307.640 52.000,307.200 52.000 C 306.760 52.000,306.400 51.820,306.400 51.600 C 306.400 51.380,305.961 51.200,305.424 51.200 C 304.887 51.200,304.336 51.020,304.200 50.800 C 304.064 50.580,303.344 50.400,302.600 50.400 C 301.856 50.400,301.136 50.220,301.000 50.000 C 300.657 49.445,54.943 49.445,54.600 50.000 M153.628 101.101 C 149.262 103.327,149.418 109.442,153.896 111.588 C 156.259 112.720,267.929 112.885,270.651 111.760 C 275.652 109.694,276.133 103.273,271.453 101.052 C 269.260 100.011,155.673 100.058,153.628 101.101 M368.121 126.327 C 366.844 127.607,365.141 129.362,364.337 130.227 C 362.580 132.115,358.063 136.135,357.443 136.363 C 357.199 136.452,356.730 136.813,356.400 137.165 C 356.070 137.517,355.305 138.060,354.700 138.370 C 354.095 138.681,353.600 139.085,353.600 139.268 C 353.600 139.450,353.364 139.600,353.075 139.600 C 352.787 139.600,352.164 139.960,351.692 140.400 C 351.220 140.840,350.571 141.200,350.250 141.200 C 349.929 141.200,349.607 141.335,349.533 141.500 C 349.460 141.665,347.960 142.520,346.200 143.400 C 344.440 144.280,342.940 145.135,342.867 145.300 C 342.793 145.465,342.388 145.600,341.967 145.600 C 341.545 145.600,341.200 145.780,341.200 146.000 C 341.200 146.220,340.840 146.400,340.400 146.400 C 339.960 146.400,339.600 146.580,339.600 146.800 C 339.600 147.020,339.251 147.200,338.824 147.200 C 338.397 147.200,337.936 147.380,337.800 147.600 C 337.664 147.820,337.113 148.000,336.576 148.000 C 336.039 148.000,335.600 148.180,335.600 148.400 C 335.600 148.620,335.240 148.800,334.800 148.800 C 334.360 148.800,334.000 148.980,334.000 149.200 C 334.000 149.420,333.460 149.600,332.800 149.600 C 332.140 149.600,331.600 149.780,331.600 150.000 C 331.600 150.220,331.251 150.400,330.824 150.400 C 330.397 150.400,329.936 150.580,329.800 150.800 C 329.664 151.020,329.113 151.200,328.576 151.200 C 328.039 151.200,327.600 151.380,327.600 151.600 C 327.600 151.820,327.231 152.000,326.781 152.000 C 326.330 152.000,325.565 152.438,325.081 152.974 C 324.274 153.866,322.266 154.735,318.900 155.647 C 318.185 155.841,316.925 156.192,316.100 156.427 C 315.275 156.661,313.880 157.029,313.000 157.245 C 312.120 157.460,310.680 157.818,309.800 158.040 C 308.269 158.426,307.119 158.689,302.900 159.618 C 297.491 160.809,289.756 162.099,284.102 162.752 C 280.880 163.125,279.997 163.810,276.778 168.434 C 274.265 172.043,273.263 172.782,272.400 171.660 C 270.415 169.079,265.785 170.443,255.800 176.550 C 254.040 177.626,251.973 178.863,251.206 179.299 C 247.995 181.125,239.835 187.107,235.018 191.166 C 223.256 201.079,212.341 215.849,206.765 229.400 C 205.645 232.122,203.525 239.586,202.846 243.200 C 201.666 249.482,201.554 251.015,201.637 259.839 L 201.726 269.225 200.715 270.312 C 199.524 271.595,193.841 279.268,192.889 280.881 C 192.525 281.496,192.086 282.000,191.914 282.000 C 191.741 282.000,191.600 282.270,191.600 282.600 C 191.600 282.930,191.420 283.200,191.200 283.200 C 190.980 283.200,190.800 283.470,190.800 283.800 C 190.800 284.130,190.650 284.400,190.468 284.400 C 190.285 284.400,189.880 284.895,189.568 285.500 C 189.255 286.105,188.863 286.780,188.696 287.000 C 185.762 290.859,177.787 305.239,175.652 310.519 C 174.158 314.215,177.037 318.200,181.200 318.200 C 184.528 318.200,185.220 317.527,188.354 311.240 C 189.846 308.248,191.457 305.125,191.934 304.300 C 192.410 303.475,193.150 302.182,193.578 301.427 C 196.339 296.555,205.657 282.785,207.479 280.885 C 207.750 280.602,208.283 279.844,208.664 279.200 C 209.634 277.558,209.130 277.579,218.400 278.790 C 238.053 281.357,257.121 280.267,267.900 275.960 C 268.395 275.762,269.205 275.439,269.700 275.243 C 275.564 272.919,281.261 268.648,281.810 266.164 C 281.951 265.524,282.136 264.775,282.221 264.500 C 282.334 264.133,283.765 264.000,287.582 264.000 C 295.354 264.000,296.607 263.538,303.200 258.246 C 305.991 256.005,318.139 244.111,322.580 239.271 C 323.940 237.788,324.756 237.200,325.267 237.333 C 325.721 237.452,326.000 237.311,326.000 236.963 C 326.000 236.653,326.180 236.400,326.400 236.400 C 326.633 236.400,326.800 235.067,326.800 233.200 C 326.800 231.333,326.633 230.000,326.400 230.000 C 326.180 230.000,326.000 229.640,326.000 229.200 C 326.000 228.483,326.267 228.400,328.576 228.400 C 329.993 228.400,331.264 228.220,331.400 228.000 C 331.536 227.780,331.997 227.600,332.424 227.600 C 332.851 227.600,333.200 227.450,333.200 227.268 C 333.200 227.085,333.644 226.698,334.186 226.407 C 334.729 226.117,335.078 225.727,334.963 225.540 C 334.847 225.353,335.004 225.200,335.312 225.200 C 335.921 225.200,339.720 221.094,340.990 219.063 C 341.424 218.368,341.919 217.740,342.090 217.667 C 342.260 217.593,342.400 217.278,342.400 216.967 C 342.400 216.655,342.580 216.400,342.800 216.400 C 343.020 216.400,343.200 216.212,343.200 215.983 C 343.200 215.754,343.560 215.180,344.000 214.708 C 344.440 214.236,344.800 213.613,344.800 213.325 C 344.800 213.036,344.980 212.800,345.200 212.800 C 345.420 212.800,345.600 212.480,345.600 212.088 C 345.600 211.697,345.960 211.117,346.400 210.800 C 346.840 210.483,347.200 209.903,347.200 209.512 C 347.200 209.120,347.336 208.800,347.502 208.800 C 347.669 208.800,348.059 208.215,348.370 207.500 C 348.681 206.785,349.040 206.110,349.168 206.000 C 349.918 205.353,353.577 197.989,353.590 197.100 C 353.595 196.715,353.780 196.400,354.000 196.400 C 354.220 196.400,354.400 196.040,354.400 195.600 C 354.400 195.160,354.580 194.800,354.800 194.800 C 355.020 194.800,355.200 194.440,355.200 194.000 C 355.200 193.560,355.380 193.200,355.600 193.200 C 355.820 193.200,356.000 192.921,356.000 192.581 C 356.000 192.240,356.360 191.216,356.800 190.306 C 357.662 188.522,357.932 183.852,357.200 183.400 C 356.674 183.075,356.683 181.600,357.211 181.600 C 357.857 181.600,361.200 178.089,361.200 177.411 C 361.200 177.075,361.380 176.800,361.600 176.800 C 361.820 176.800,362.000 176.506,362.000 176.147 C 362.000 175.788,362.329 175.203,362.730 174.847 C 363.132 174.491,363.716 173.615,364.028 172.900 C 364.340 172.185,364.731 171.600,364.898 171.600 C 365.064 171.600,365.200 171.240,365.200 170.800 C 365.200 170.360,365.380 170.000,365.600 170.000 C 365.820 170.000,366.000 169.640,366.000 169.200 C 366.000 168.760,366.180 168.400,366.400 168.400 C 366.620 168.400,366.800 168.055,366.800 167.633 C 366.800 167.212,366.935 166.807,367.100 166.733 C 367.524 166.545,370.000 161.601,370.000 160.944 C 370.000 160.645,370.180 160.400,370.400 160.400 C 370.620 160.400,370.800 160.040,370.800 159.600 C 370.800 159.160,370.980 158.800,371.200 158.800 C 371.420 158.800,371.600 158.440,371.600 158.000 C 371.600 157.560,371.780 157.200,372.000 157.200 C 372.220 157.200,372.400 156.928,372.400 156.595 C 372.400 156.262,372.565 155.677,372.767 155.295 C 373.738 153.459,374.764 150.799,375.013 149.471 C 375.165 148.662,375.449 148.000,375.645 148.000 C 375.840 148.000,376.000 147.460,376.000 146.800 C 376.000 146.140,376.180 145.600,376.400 145.600 C 376.620 145.600,376.800 145.060,376.800 144.400 C 376.800 143.740,376.980 143.200,377.200 143.200 C 377.420 143.200,377.600 142.761,377.600 142.224 C 377.600 141.687,377.780 141.136,378.000 141.000 C 378.220 140.864,378.400 140.313,378.400 139.776 C 378.400 139.239,378.580 138.800,378.800 138.800 C 379.020 138.800,379.200 138.271,379.200 137.624 C 379.200 136.977,379.380 136.336,379.600 136.200 C 379.820 136.064,380.000 135.333,380.000 134.576 C 380.000 133.819,380.180 133.200,380.400 133.200 C 380.626 133.200,380.800 132.067,380.800 130.600 C 380.800 129.133,380.626 128.000,380.400 128.000 C 380.180 128.000,380.000 127.722,380.000 127.382 C 380.000 126.582,378.218 124.800,377.418 124.800 C 377.078 124.800,376.800 124.620,376.800 124.400 C 376.800 124.167,375.474 124.000,373.621 124.000 L 370.441 124.000 368.121 126.327 M153.628 132.298 C 149.262 134.532,149.418 140.642,153.896 142.788 C 156.124 143.855,268.327 144.092,270.851 143.035 C 275.319 141.163,275.978 135.519,272.071 132.600 C 270.493 131.422,155.913 131.130,153.628 132.298 M359.182 153.470 C 357.684 156.813,356.053 160.110,354.569 162.800 C 350.261 170.610,349.899 170.997,341.783 176.467 C 333.085 182.329,331.594 183.518,330.921 185.128 C 329.008 189.705,332.654 194.020,337.918 193.410 C 341.014 193.050,341.109 193.296,339.256 196.854 C 335.186 204.668,331.820 209.892,328.523 213.511 C 326.346 215.901,326.182 215.949,317.400 216.777 C 314.760 217.026,311.160 217.404,309.400 217.616 C 307.640 217.828,305.315 218.001,304.233 218.001 C 297.753 217.999,294.006 220.323,294.001 224.346 C 293.998 227.800,295.314 228.850,304.968 233.090 C 307.371 234.145,309.400 235.199,309.477 235.432 C 309.862 236.585,293.921 251.005,291.240 251.931 C 286.868 253.440,271.938 250.305,262.200 245.832 C 261.100 245.327,259.697 244.708,259.081 244.457 C 254.386 242.540,249.441 247.450,251.384 252.099 C 252.563 254.922,258.760 261.786,261.694 263.519 C 267.864 267.164,241.829 270.025,224.723 267.582 C 223.251 267.372,221.496 267.200,220.823 267.200 C 218.819 267.200,219.311 266.119,223.280 261.800 C 233.143 251.066,252.063 233.394,258.157 229.223 C 258.621 228.906,259.090 228.541,259.200 228.413 C 259.310 228.284,260.210 227.559,261.200 226.800 C 262.190 226.041,263.090 225.317,263.200 225.191 C 263.310 225.065,264.030 224.529,264.800 224.000 C 265.570 223.471,266.290 222.929,266.400 222.794 C 266.510 222.660,269.030 220.813,272.000 218.689 C 274.970 216.566,277.580 214.684,277.800 214.506 C 278.814 213.687,287.973 207.600,288.191 207.600 C 288.326 207.600,289.733 206.732,291.318 205.671 C 294.011 203.869,301.095 199.554,304.500 197.642 C 305.325 197.179,306.675 196.412,307.500 195.938 C 308.325 195.465,309.700 194.700,310.556 194.238 C 315.002 191.843,315.137 185.684,310.792 183.501 C 308.307 182.252,307.015 182.553,301.590 185.642 C 294.051 189.937,293.879 190.038,292.738 190.847 C 292.154 191.261,291.557 191.600,291.410 191.600 C 291.264 191.600,290.359 192.140,289.400 192.800 C 288.441 193.460,287.567 194.000,287.457 194.000 C 287.348 194.000,285.851 194.927,284.129 196.061 C 282.408 197.195,278.660 199.661,275.800 201.542 C 272.940 203.423,270.510 205.074,270.400 205.211 C 270.290 205.348,269.047 206.237,267.638 207.187 C 266.229 208.137,264.789 209.147,264.438 209.431 C 264.087 209.715,261.820 211.433,259.400 213.250 C 255.517 216.165,247.800 222.250,246.545 223.387 C 246.294 223.614,245.664 224.144,245.145 224.565 C 244.204 225.327,238.780 230.018,238.400 230.400 C 238.290 230.510,236.225 232.400,233.811 234.600 C 229.605 238.434,222.482 245.468,216.657 251.540 C 212.944 255.410,212.838 255.372,213.620 250.446 C 215.608 237.912,219.354 228.051,225.707 218.624 C 231.062 210.679,239.169 202.407,248.000 195.878 C 249.430 194.820,250.917 193.695,251.305 193.378 C 251.692 193.060,252.187 192.800,252.405 192.800 C 252.622 192.800,252.800 192.650,252.800 192.468 C 252.800 192.285,253.295 191.880,253.900 191.568 C 254.505 191.256,255.090 190.902,255.200 190.781 C 256.589 189.254,260.698 187.874,260.203 189.100 C 260.048 189.485,259.825 190.520,259.707 191.400 C 259.589 192.280,259.325 193.212,259.120 193.472 C 257.044 196.108,259.341 202.116,262.824 203.160 C 266.812 204.355,267.574 203.604,277.607 188.600 C 286.785 174.874,286.345 175.511,287.210 174.705 C 287.626 174.317,288.458 174.000,289.059 174.000 C 290.222 174.000,293.821 173.400,301.400 171.944 C 304.001 171.444,308.161 170.530,312.300 169.550 C 318.409 168.103,331.591 164.125,334.600 162.820 C 335.040 162.630,336.660 161.992,338.200 161.403 C 342.865 159.620,350.010 156.230,355.200 153.336 C 359.564 150.904,359.796 150.798,359.923 151.175 C 359.991 151.376,359.658 152.409,359.182 153.470 M153.635 163.519 C 149.472 165.596,149.331 171.436,153.387 173.814 L 155.070 174.800 196.716 174.800 C 240.463 174.800,239.474 174.839,241.535 173.024 C 244.479 170.430,243.912 165.622,240.433 163.666 L 238.891 162.800 196.946 162.819 C 158.273 162.837,154.894 162.892,153.635 163.519 " stroke="none" fill="#2c3c54" fill-rule="evenodd"></path><path id="path1" d="M91.357 63.415 C 91.695 63.753,92.287 64.563,92.672 65.215 C 93.057 65.867,93.514 66.400,93.686 66.400 C 93.859 66.400,94.000 66.670,94.000 67.000 C 94.000 67.330,94.159 67.600,94.353 67.600 C 94.548 67.600,94.810 67.915,94.936 68.300 C 95.062 68.685,95.589 69.720,96.107 70.600 C 97.795 73.467,99.296 77.948,99.992 82.200 C 100.863 87.521,100.356 324.256,99.466 328.000 C 98.179 333.411,94.472 342.400,93.527 342.400 C 93.347 342.400,93.200 342.671,93.200 343.002 C 93.200 343.757,294.874 343.662,298.800 342.905 C 306.315 341.457,312.027 337.492,315.216 331.509 C 318.365 325.601,318.400 325.139,318.400 288.959 L 318.400 257.318 319.310 255.969 C 320.488 254.220,322.617 252.800,324.059 252.800 L 325.200 252.800 325.200 245.400 C 325.200 237.014,325.266 237.128,322.381 240.500 C 319.494 243.875,309.128 254.189,306.400 256.401 C 305.190 257.383,303.930 258.465,303.600 258.806 C 302.442 260.003,297.839 263.257,296.427 263.877 C 295.363 264.344,293.494 264.516,289.088 264.552 L 283.176 264.600 282.715 266.133 C 281.941 268.706,277.867 272.114,272.352 274.804 C 270.948 275.488,269.487 276.217,269.105 276.424 C 268.723 276.631,268.059 276.800,267.629 276.800 C 267.199 276.800,266.736 276.980,266.600 277.200 C 266.464 277.420,265.924 277.600,265.400 277.600 C 264.876 277.600,264.348 277.760,264.227 277.956 C 264.106 278.151,263.421 278.414,262.704 278.539 C 261.987 278.664,260.410 278.953,259.200 279.182 C 252.637 280.420,250.049 280.600,238.800 280.599 C 227.092 280.597,220.719 280.126,211.800 278.602 L 210.200 278.329 207.552 281.864 C 204.443 286.015,196.400 297.795,196.400 298.198 C 196.400 298.351,196.061 298.954,195.647 299.538 C 194.532 301.112,192.798 304.100,192.536 304.900 C 192.410 305.285,192.148 305.600,191.953 305.600 C 191.759 305.600,191.600 305.945,191.600 306.367 C 191.600 306.788,191.456 307.193,191.281 307.267 C 190.923 307.416,187.600 314.116,187.600 314.689 C 187.600 315.684,184.651 318.409,183.132 318.818 C 177.780 320.259,172.726 314.480,175.152 309.695 C 175.346 309.313,176.671 306.660,178.097 303.800 C 181.657 296.659,190.592 282.155,194.182 277.687 C 194.486 277.309,196.207 275.024,198.007 272.610 L 201.280 268.219 200.805 263.090 C 199.899 253.304,201.970 239.304,205.626 230.500 C 205.832 230.005,206.154 229.195,206.343 228.700 C 206.532 228.205,207.072 227.018,207.543 226.062 C 208.014 225.106,208.400 224.071,208.400 223.762 C 208.400 223.453,208.580 223.200,208.800 223.200 C 209.020 223.200,209.200 222.855,209.200 222.433 C 209.200 222.012,209.335 221.607,209.500 221.533 C 209.665 221.460,210.409 220.230,211.154 218.800 C 218.906 203.909,237.734 185.601,255.000 176.163 C 255.440 175.922,256.520 175.309,257.400 174.801 C 258.280 174.293,259.720 173.500,260.600 173.038 C 261.480 172.577,262.290 172.108,262.400 171.995 C 264.471 169.868,270.088 169.149,272.301 170.728 C 273.541 171.613,274.800 171.350,274.800 170.207 C 274.800 169.880,277.889 165.334,278.905 164.165 C 280.108 162.781,281.689 162.304,287.600 161.537 C 289.250 161.323,291.680 160.973,293.000 160.759 C 294.320 160.545,296.210 160.270,297.200 160.146 C 298.190 160.023,299.171 159.760,299.380 159.561 C 299.589 159.363,300.523 159.200,301.456 159.200 C 302.389 159.200,303.264 159.020,303.400 158.800 C 303.536 158.580,304.346 158.400,305.200 158.400 C 306.054 158.400,306.864 158.220,307.000 158.000 C 307.136 157.780,307.856 157.600,308.600 157.600 C 309.344 157.600,310.064 157.420,310.200 157.200 C 310.336 156.980,311.056 156.800,311.800 156.800 C 312.544 156.800,313.264 156.620,313.400 156.400 C 313.536 156.180,314.078 156.000,314.605 156.000 C 315.131 156.000,315.976 155.839,316.481 155.642 C 316.987 155.445,318.210 155.067,319.200 154.803 C 320.190 154.538,321.313 154.160,321.695 153.961 C 322.077 153.762,322.707 153.594,323.095 153.587 C 324.907 153.555,325.200 152.766,325.200 147.928 L 325.200 143.345 323.225 142.807 C 317.388 141.217,317.603 142.437,317.601 110.925 C 317.600 88.205,317.505 83.641,316.987 81.407 C 314.595 71.091,308.368 65.328,297.376 63.257 C 293.155 62.461,90.559 62.617,91.357 63.415 M271.854 100.367 C 276.301 103.079,276.449 109.105,272.137 111.931 L 270.811 112.800 212.600 112.800 C 166.775 112.800,154.199 112.694,153.495 112.300 C 148.564 109.544,148.301 103.181,153.008 100.515 L 154.600 99.613 212.600 99.608 C 269.002 99.603,270.635 99.624,271.854 100.367 M270.426 131.065 C 276.112 132.202,276.949 140.482,271.683 143.500 C 270.270 144.310,154.970 144.223,153.341 143.410 C 149.632 141.560,148.531 137.443,150.791 133.878 C 151.446 132.845,152.031 131.997,152.091 131.994 C 152.151 131.991,152.920 131.729,153.800 131.412 C 155.496 130.800,267.439 130.468,270.426 131.065 M240.720 162.968 C 244.459 164.937,245.216 170.340,242.178 173.378 C 240.284 175.271,242.065 175.200,196.743 175.200 L 153.876 175.200 152.504 174.154 C 148.638 171.205,148.643 166.035,152.515 163.300 L 153.789 162.400 196.714 162.400 C 233.040 162.400,239.806 162.487,240.720 162.968 " stroke="none" fill="#e3e3e3" fill-rule="evenodd"></path><path id="path2" d="M358.595 151.947 C 357.716 152.785,348.367 157.632,343.200 159.928 C 335.571 163.318,322.916 167.571,314.300 169.640 C 313.475 169.838,312.035 170.190,311.100 170.422 C 307.807 171.239,303.425 172.174,299.800 172.832 C 294.377 173.818,293.303 173.991,291.200 174.223 C 287.411 174.639,287.388 174.662,281.614 183.485 C 278.651 188.012,276.031 191.914,275.791 192.158 C 275.551 192.401,275.224 192.870,275.064 193.200 C 273.834 195.738,268.411 202.685,267.197 203.278 C 261.947 205.845,256.934 201.195,258.305 195.030 C 259.037 191.734,259.359 189.200,259.045 189.200 C 258.511 189.200,253.663 192.338,249.800 195.183 C 234.968 206.110,225.348 217.573,219.406 231.400 C 218.189 234.231,218.066 234.559,217.217 237.200 C 215.599 242.241,215.191 243.952,214.381 249.112 C 213.678 253.587,213.908 253.599,218.076 249.297 C 227.512 239.558,236.407 231.159,243.599 225.200 C 244.794 224.210,246.408 222.842,247.186 222.160 C 249.313 220.295,259.542 212.365,262.660 210.162 C 264.167 209.098,265.490 208.109,265.600 207.964 C 265.906 207.561,285.493 194.400,285.787 194.400 C 285.928 194.400,287.104 193.680,288.400 192.800 C 289.696 191.920,290.869 191.200,291.006 191.200 C 291.143 191.200,292.008 190.691,292.928 190.069 C 304.973 181.920,310.663 180.648,313.626 185.443 C 316.375 189.889,314.621 192.441,305.000 197.995 C 301.480 200.026,298.122 202.029,297.538 202.444 C 296.954 202.860,296.359 203.200,296.216 203.200 C 296.073 203.200,294.917 203.906,293.647 204.768 C 292.377 205.631,290.632 206.731,289.769 207.213 C 288.171 208.106,276.495 215.996,273.467 218.229 C 265.988 223.744,263.177 225.881,258.965 229.254 C 256.306 231.384,253.872 233.368,253.556 233.663 C 253.239 233.958,251.815 235.190,250.391 236.400 C 248.966 237.610,247.273 239.050,246.628 239.600 C 237.670 247.240,219.851 265.612,220.637 266.396 C 221.800 267.557,243.302 268.441,249.871 267.599 C 256.029 266.809,262.000 265.441,262.000 264.820 C 262.000 264.642,261.145 263.800,260.100 262.948 C 250.283 254.949,247.953 248.341,253.596 244.500 C 254.992 243.550,258.147 243.260,259.505 243.956 C 260.217 244.321,263.568 245.835,265.000 246.438 C 270.346 248.691,281.472 251.510,285.400 251.606 C 291.482 251.756,291.283 251.809,294.674 249.128 C 297.746 246.699,308.800 236.111,308.800 235.598 C 308.800 235.250,307.948 234.838,301.837 232.227 C 293.861 228.819,291.627 225.405,294.500 221.013 C 296.306 218.253,296.450 218.219,312.400 216.780 C 314.930 216.552,318.205 216.193,319.677 215.982 C 321.149 215.772,323.060 215.600,323.923 215.600 C 327.096 215.600,332.408 208.905,338.364 197.400 L 340.020 194.200 337.089 194.000 C 330.915 193.579,327.896 188.854,330.780 184.125 C 331.538 182.883,332.904 181.869,343.923 174.375 C 350.139 170.147,350.419 169.788,355.807 159.117 C 358.912 152.968,359.730 150.864,358.595 151.947 " stroke="none" fill="#f9d263" fill-rule="evenodd"></path><path id="path3" d="M90.705 62.629 C 90.579 62.754,91.468 64.239,92.681 65.929 C 96.319 70.995,98.096 75.077,99.415 81.400 C 99.920 83.819,99.999 100.362,100.000 202.954 C 100.000 324.020,100.006 323.478,98.519 329.400 C 98.187 330.720,97.822 332.310,97.708 332.933 C 97.593 333.556,96.560 335.941,95.411 338.233 C 94.262 340.525,93.441 342.400,93.588 342.400 C 94.479 342.400,98.222 333.231,99.466 328.000 C 100.356 324.256,100.863 87.521,99.992 82.200 C 99.296 77.948,97.795 73.467,96.107 70.600 C 95.589 69.720,95.062 68.685,94.936 68.300 C 94.810 67.915,94.548 67.600,94.353 67.600 C 94.159 67.600,94.000 67.330,94.000 67.000 C 94.000 66.670,93.859 66.400,93.686 66.400 C 93.514 66.400,93.057 65.867,92.672 65.215 C 92.287 64.563,91.695 63.753,91.357 63.415 C 90.559 62.617,293.155 62.461,297.376 63.257 C 304.765 64.649,310.197 67.889,313.492 72.867 C 314.056 73.719,314.600 74.333,314.702 74.231 C 314.804 74.129,314.468 73.451,313.955 72.723 C 310.186 67.374,304.585 63.995,297.567 62.835 C 294.797 62.377,91.159 62.174,90.705 62.629 M55.693 63.573 C 47.651 65.549,41.737 70.954,39.032 78.800 C 38.691 79.790,38.409 80.735,38.406 80.900 C 38.403 81.065,47.049 81.200,57.620 81.200 C 80.223 81.200,79.969 81.146,81.259 86.269 L 81.695 88.000 84.447 88.000 L 87.200 88.000 87.193 86.100 C 87.136 70.384,72.007 59.565,55.693 63.573 M315.593 76.782 C 317.572 81.802,317.600 82.283,317.601 110.925 C 317.603 137.653,317.608 137.808,318.456 139.200 C 319.480 140.881,321.173 142.403,322.000 142.387 C 322.419 142.379,322.359 142.242,321.800 141.933 C 317.857 139.753,318.002 140.954,317.986 110.251 C 317.970 81.189,317.966 81.129,315.738 76.100 C 314.835 74.061,314.725 74.579,315.593 76.782 M153.008 100.515 C 148.301 103.181,148.564 109.544,153.495 112.300 C 154.199 112.694,166.775 112.800,212.600 112.800 L 270.811 112.800 272.137 111.931 C 276.449 109.105,276.301 103.079,271.854 100.367 C 270.635 99.624,269.002 99.603,212.600 99.608 L 154.600 99.613 153.008 100.515 M271.586 100.719 C 275.769 102.774,275.954 109.132,271.904 111.602 C 270.619 112.386,269.769 112.397,212.654 112.399 L 154.709 112.400 153.202 111.553 C 149.069 109.230,149.036 103.245,153.143 100.863 L 154.600 100.018 212.400 100.028 C 266.005 100.038,270.301 100.088,271.586 100.719 M183.931 131.100 C 199.844 131.158,225.764 131.158,241.531 131.100 C 257.299 131.042,244.280 130.995,212.600 130.995 C 180.920 130.995,168.019 131.042,183.931 131.100 M152.714 131.822 C 150.320 133.121,148.985 137.120,150.025 139.874 C 150.508 141.151,152.334 143.205,152.975 143.191 C 153.209 143.186,153.012 142.871,152.537 142.491 C 148.681 139.401,149.417 133.746,153.936 131.738 C 154.521 131.478,154.730 131.258,154.400 131.249 C 154.070 131.239,153.311 131.497,152.714 131.822 M271.722 132.125 C 275.830 134.613,275.928 140.345,271.904 142.804 C 270.616 143.590,269.898 143.599,212.138 143.500 C 179.984 143.445,153.760 143.535,153.862 143.700 C 154.209 144.261,270.700 144.063,271.683 143.500 C 275.756 141.166,276.579 136.158,273.411 132.989 C 272.426 132.005,271.301 131.201,270.911 131.202 C 270.463 131.203,270.763 131.545,271.722 132.125 M323.200 142.800 C 323.976 143.301,324.400 143.301,324.400 142.800 C 324.400 142.580,323.995 142.403,323.500 142.406 C 322.772 142.411,322.715 142.486,323.200 142.800 M324.200 153.200 C 324.064 153.420,323.601 153.600,323.171 153.600 C 322.741 153.600,322.077 153.762,321.695 153.961 C 321.313 154.160,320.190 154.538,319.200 154.803 C 318.210 155.067,316.987 155.445,316.481 155.642 C 315.976 155.839,315.131 156.000,314.605 156.000 C 314.078 156.000,313.532 156.187,313.390 156.416 C 313.086 156.908,313.998 156.723,318.800 155.315 C 320.670 154.767,322.600 154.227,323.088 154.115 C 323.876 153.934,325.243 152.800,324.673 152.800 C 324.549 152.800,324.336 152.980,324.200 153.200 M310.200 157.200 C 309.916 157.660,310.564 157.660,312.000 157.200 C 312.955 156.894,312.943 156.878,311.724 156.840 C 311.022 156.818,310.336 156.980,310.200 157.200 M307.000 158.000 C 306.716 158.460,307.364 158.460,308.800 158.000 C 309.755 157.694,309.743 157.678,308.524 157.640 C 307.822 157.618,307.136 157.780,307.000 158.000 M303.400 158.800 C 303.116 159.260,303.764 159.260,305.200 158.800 C 306.155 158.494,306.143 158.478,304.924 158.440 C 304.222 158.418,303.536 158.580,303.400 158.800 M299.384 159.626 C 299.205 159.915,299.612 159.962,300.661 159.772 C 302.703 159.403,302.855 159.200,301.090 159.200 C 300.297 159.200,299.529 159.391,299.384 159.626 M295.200 160.400 C 294.442 160.890,295.670 160.890,297.200 160.400 C 298.180 160.086,298.176 160.079,297.000 160.046 C 296.340 160.027,295.530 160.187,295.200 160.400 M290.200 161.200 C 289.136 161.657,290.803 161.657,292.600 161.200 L 293.800 160.895 292.400 160.875 C 291.630 160.865,290.640 161.011,290.200 161.200 M284.400 162.000 L 283.400 162.320 284.400 162.337 C 284.950 162.346,286.120 162.205,287.000 162.023 L 288.600 161.692 287.000 161.686 C 286.120 161.683,284.950 161.824,284.400 162.000 M152.515 163.300 C 147.800 166.631,149.654 175.349,155.038 175.159 C 156.188 175.119,156.186 175.115,154.849 174.799 C 148.945 173.405,148.331 165.429,153.936 162.938 C 154.521 162.678,154.727 162.450,154.394 162.432 C 154.061 162.415,153.216 162.805,152.515 163.300 M240.231 163.208 C 245.427 165.780,244.408 173.453,238.690 174.812 C 237.437 175.109,237.432 175.119,238.505 175.159 C 241.371 175.265,244.000 172.223,244.000 168.800 C 244.000 165.612,241.550 162.399,239.120 162.400 C 238.834 162.400,239.334 162.764,240.231 163.208 M280.600 162.864 C 279.106 163.685,274.423 169.757,274.909 170.243 C 275.009 170.342,275.833 169.284,276.741 167.891 C 278.614 165.016,280.146 163.427,281.600 162.848 C 282.150 162.630,282.330 162.445,282.000 162.438 C 281.670 162.430,281.040 162.622,280.600 162.864 M266.800 169.840 C 265.819 170.200,262.616 171.772,262.400 172.000 C 262.290 172.116,261.335 172.647,260.278 173.180 C 259.220 173.713,258.261 174.302,258.145 174.489 C 258.030 174.676,260.061 173.722,262.659 172.369 C 267.934 169.623,269.870 169.399,272.448 171.234 C 273.576 172.037,273.718 172.054,274.320 171.452 C 274.687 171.084,274.774 170.800,274.519 170.800 C 274.270 170.800,273.995 171.016,273.907 171.280 C 273.799 171.602,273.313 171.450,272.422 170.816 C 271.123 169.891,268.095 169.365,266.800 169.840 M256.000 175.633 L 255.000 176.448 256.300 175.814 C 257.015 175.465,257.600 175.094,257.600 174.990 C 257.600 174.592,256.963 174.848,256.000 175.633 M251.000 178.546 C 235.552 188.528,224.350 198.951,215.907 211.200 C 212.776 215.742,210.693 219.226,210.952 219.486 C 211.056 219.589,211.451 219.073,211.831 218.337 C 218.360 205.678,235.165 188.811,250.900 179.123 C 253.045 177.803,254.800 176.650,254.800 176.561 C 254.800 176.187,254.026 176.591,251.000 178.546 M207.429 226.061 C 206.836 227.251,206.576 228.357,206.987 227.946 C 207.300 227.633,208.423 224.800,208.235 224.800 C 208.138 224.800,207.775 225.368,207.429 226.061 M206.173 229.043 C 206.038 229.459,205.776 230.160,205.590 230.600 C 202.000 239.111,199.904 253.360,200.808 263.119 L 201.285 268.277 198.716 271.639 C 195.555 275.775,194.281 277.600,194.554 277.600 C 194.668 277.600,196.248 275.614,198.064 273.187 L 201.365 268.774 201.405 258.287 C 201.429 252.086,201.627 247.064,201.890 246.000 C 202.134 245.010,202.542 243.120,202.797 241.800 C 203.051 240.480,204.039 236.970,204.993 234.000 C 205.946 231.030,206.657 228.529,206.573 228.443 C 206.488 228.356,206.308 228.626,206.173 229.043 M320.561 241.883 C 315.889 246.934,313.118 249.728,307.983 254.562 C 305.749 256.665,305.101 257.407,306.400 256.374 C 310.069 253.458,325.592 237.600,324.779 237.600 C 324.638 237.600,322.740 239.527,320.561 241.883 M321.569 253.710 C 320.826 254.210,319.810 255.226,319.310 255.969 L 318.400 257.318 318.400 288.959 C 318.400 321.296,318.337 322.859,316.847 327.882 C 315.814 331.362,312.561 335.949,309.439 338.327 C 308.800 338.813,308.385 339.318,308.515 339.449 C 309.015 339.948,314.637 333.765,315.736 331.507 C 318.817 325.176,318.800 325.410,318.800 289.655 C 318.800 258.174,318.807 257.896,319.638 256.418 C 320.496 254.892,322.224 253.596,324.000 253.147 L 325.000 252.895 323.959 252.847 C 323.387 252.821,322.311 253.209,321.569 253.710 M301.400 260.048 C 296.928 263.669,295.498 264.137,288.625 264.234 L 282.650 264.317 282.122 266.127 C 281.275 269.031,276.729 272.542,270.026 275.469 C 268.362 276.196,267.317 276.792,267.705 276.795 C 268.093 276.798,268.723 276.631,269.105 276.424 C 269.487 276.217,270.948 275.488,272.352 274.804 C 277.867 272.114,281.941 268.706,282.715 266.133 L 283.176 264.600 289.088 264.552 C 296.076 264.494,298.844 263.410,303.548 258.888 C 304.932 257.558,303.561 258.298,301.400 260.048 M264.400 277.420 C 257.197 279.689,248.609 280.559,236.200 280.278 C 226.577 280.060,223.377 279.818,216.000 278.754 C 209.881 277.872,210.237 277.762,207.401 281.423 C 204.707 284.900,196.067 297.736,194.224 301.000 C 193.603 302.100,192.744 303.585,192.315 304.300 C 191.886 305.015,191.708 305.600,191.921 305.600 C 192.133 305.600,192.410 305.285,192.536 304.900 C 192.798 304.100,194.532 301.112,195.647 299.538 C 196.061 298.954,196.400 298.351,196.400 298.198 C 196.400 297.795,204.443 286.015,207.552 281.864 L 210.200 278.329 211.800 278.602 C 220.719 280.126,227.092 280.597,238.800 280.599 C 250.049 280.600,252.637 280.420,259.200 279.182 C 260.410 278.953,261.987 278.664,262.704 278.539 C 263.421 278.414,264.106 278.151,264.227 277.956 C 264.348 277.760,264.876 277.600,265.400 277.600 C 265.924 277.600,266.464 277.420,266.600 277.200 C 266.914 276.693,266.616 276.722,264.400 277.420 M189.157 285.109 C 182.781 294.847,178.578 301.911,178.943 302.276 C 179.034 302.367,179.790 301.217,180.625 299.721 C 183.804 294.017,187.027 288.807,190.661 283.500 C 192.733 280.475,194.286 278.004,194.114 278.009 C 193.941 278.014,191.711 281.209,189.157 285.109 M176.242 307.237 C 175.306 309.113,175.490 309.676,176.447 307.862 C 176.893 307.016,177.174 306.240,177.071 306.137 C 176.968 306.034,176.595 306.529,176.242 307.237 M175.067 309.867 C 174.920 310.013,174.815 310.598,174.834 311.167 C 174.868 312.181,174.875 312.179,175.221 311.020 C 175.585 309.803,175.531 309.402,175.067 309.867 M187.200 314.401 C 186.180 316.577,185.305 317.533,183.664 318.262 C 182.943 318.582,182.821 318.746,183.286 318.768 C 184.725 318.836,189.118 313.385,188.291 312.557 C 188.205 312.472,187.714 313.302,187.200 314.401 M174.846 313.911 C 174.795 315.372,177.754 318.800,179.068 318.800 C 179.459 318.800,178.976 318.305,177.949 317.654 C 176.277 316.594,175.528 315.487,175.069 313.400 C 174.963 312.917,174.874 313.120,174.846 313.911 M81.387 319.500 C 80.948 321.614,79.830 323.266,78.186 324.229 L 76.530 325.200 57.465 325.200 C 46.979 325.200,38.403 325.335,38.406 325.500 C 38.518 331.278,45.958 339.421,53.400 341.911 C 71.002 347.801,85.546 338.896,87.067 321.300 L 87.317 318.400 84.466 318.400 C 81.678 318.400,81.610 318.424,81.387 319.500 M180.500 319.076 C 180.885 319.176,181.515 319.176,181.900 319.076 C 182.285 318.975,181.970 318.893,181.200 318.893 C 180.430 318.893,180.115 318.975,180.500 319.076 M305.476 340.687 C 304.417 341.236,303.634 341.768,303.736 341.869 C 303.941 342.075,308.000 340.099,308.000 339.793 C 308.000 339.465,307.471 339.652,305.476 340.687 M301.200 342.400 C 300.405 342.914,301.404 342.914,302.600 342.400 L 303.400 342.056 302.600 342.034 C 302.160 342.022,301.530 342.187,301.200 342.400 M296.600 343.200 C 295.547 343.653,297.621 343.653,299.400 343.200 C 300.547 342.908,300.529 342.894,299.000 342.875 C 298.120 342.865,297.040 343.011,296.600 343.200 " stroke="none" fill="#b4b4b4" fill-rule="evenodd"></path><path id="path4" d="M56.200 62.897 C 49.706 64.506,44.709 67.867,41.473 72.800 C 39.996 75.053,37.862 80.185,38.102 80.906 C 38.176 81.127,38.484 80.519,38.786 79.554 C 43.123 65.724,59.359 58.725,73.052 64.782 C 74.082 65.237,75.000 65.533,75.094 65.439 C 75.415 65.119,72.248 63.857,68.880 62.963 C 66.459 62.320,58.693 62.280,56.200 62.897 M90.006 62.700 C 90.009 62.865,90.656 63.720,91.444 64.600 L 92.876 66.200 91.649 64.556 C 90.974 63.652,90.537 62.797,90.677 62.656 C 90.818 62.515,90.723 62.400,90.467 62.400 C 90.210 62.400,90.003 62.535,90.006 62.700 M296.033 62.544 C 296.125 62.624,297.010 62.806,298.000 62.950 C 299.258 63.133,299.619 63.091,299.200 62.812 C 298.660 62.453,295.632 62.197,296.033 62.544 M305.400 65.056 C 305.620 65.260,306.837 66.119,308.103 66.965 C 309.370 67.810,310.956 69.128,311.628 69.893 C 312.300 70.658,312.934 71.200,313.037 71.096 C 313.363 70.770,308.620 66.641,306.772 65.643 C 305.797 65.116,305.180 64.852,305.400 65.056 M75.820 65.921 C 76.029 66.098,77.212 67.002,78.450 67.931 C 79.687 68.860,81.478 70.689,82.430 71.996 C 84.221 74.455,85.184 75.063,83.581 72.723 C 82.218 70.731,79.604 68.070,77.728 66.764 C 76.224 65.717,74.871 65.119,75.820 65.921 M96.812 73.600 C 96.812 73.930,96.987 74.470,97.200 74.800 C 97.545 75.333,97.588 75.333,97.588 74.800 C 97.588 74.470,97.413 73.930,97.200 73.600 C 96.855 73.067,96.812 73.067,96.812 73.600 M314.800 74.050 C 314.800 74.398,316.037 76.800,316.217 76.800 C 316.304 76.800,316.261 76.485,316.121 76.100 C 315.833 75.306,314.800 73.703,314.800 74.050 M84.622 75.500 C 84.792 75.885,85.346 77.370,85.855 78.800 C 86.363 80.230,86.784 81.003,86.790 80.519 C 86.795 80.034,86.595 79.134,86.344 78.519 C 85.246 75.826,84.748 74.800,84.538 74.800 C 84.415 74.800,84.453 75.115,84.622 75.500 M98.456 78.400 C 98.456 78.730,98.611 79.360,98.800 79.800 C 99.017 80.304,99.144 80.378,99.144 80.000 C 99.144 79.670,98.989 79.040,98.800 78.600 C 98.583 78.096,98.456 78.022,98.456 78.400 M317.268 80.400 C 317.288 81.439,317.918 83.146,317.932 82.200 C 317.938 81.760,317.789 81.040,317.600 80.600 C 317.389 80.110,317.261 80.032,317.268 80.400 M58.000 81.591 C 79.870 81.827,78.707 81.649,80.367 85.000 C 80.803 85.880,81.168 86.330,81.179 86.000 C 81.210 84.975,79.669 82.831,78.304 81.998 C 77.045 81.230,76.338 81.206,57.800 81.292 L 38.600 81.381 58.000 81.591 M87.077 84.400 C 87.206 86.050,87.376 87.475,87.456 87.567 C 87.766 87.925,87.523 82.953,87.194 82.200 C 86.978 81.706,86.933 82.547,87.077 84.400 M99.400 203.254 C 99.400 270.189,99.514 324.425,99.653 323.777 C 99.988 322.215,99.995 83.666,99.660 82.476 C 99.517 81.968,99.400 136.318,99.400 203.254 M318.095 111.000 C 318.049 125.520,318.144 137.608,318.306 137.862 C 318.571 138.279,318.558 105.489,318.287 90.600 C 318.227 87.300,318.140 96.480,318.095 111.000 M153.143 100.863 C 150.737 102.258,149.139 106.427,150.306 108.262 C 150.468 108.516,150.600 107.674,150.600 106.391 C 150.600 103.688,151.442 102.217,153.628 101.098 C 154.920 100.438,158.387 100.403,213.062 100.498 C 244.996 100.554,270.916 100.468,270.662 100.306 C 270.408 100.144,244.190 100.014,212.400 100.015 L 154.600 100.018 153.143 100.863 M272.263 101.509 C 272.737 101.889,273.501 102.830,273.961 103.600 C 274.838 105.069,275.124 104.976,274.350 103.474 C 273.722 102.255,272.345 100.798,271.830 100.809 C 271.594 100.814,271.788 101.129,272.263 101.509 M273.014 110.385 C 272.623 110.817,271.650 111.386,270.852 111.650 C 270.053 111.915,269.613 112.202,269.873 112.290 C 270.502 112.501,272.415 111.488,273.363 110.441 C 273.782 109.978,274.034 109.600,273.924 109.600 C 273.814 109.600,273.404 109.953,273.014 110.385 M154.538 131.506 C 154.284 131.668,180.412 131.800,212.600 131.800 C 244.788 131.800,270.916 131.668,270.662 131.506 C 270.408 131.344,244.280 131.212,212.600 131.212 C 180.920 131.212,154.792 131.344,154.538 131.506 M151.924 133.100 C 150.065 135.093,149.374 137.991,150.379 139.579 C 150.618 139.958,150.669 139.594,150.526 138.526 C 150.237 136.368,150.975 134.261,152.457 133.013 C 153.120 132.456,153.501 132.000,153.306 132.000 C 153.110 132.000,152.488 132.495,151.924 133.100 M272.525 133.000 C 273.143 133.593,273.823 134.536,274.036 135.095 C 274.249 135.654,274.528 136.005,274.657 135.877 C 275.023 135.510,273.349 133.061,272.323 132.461 C 271.562 132.016,271.597 132.111,272.525 133.000 M318.812 139.059 C 318.800 139.533,321.408 142.003,321.914 141.996 C 322.071 141.993,321.618 141.532,320.906 140.972 C 320.195 140.411,319.436 139.648,319.219 139.276 C 319.002 138.904,318.819 138.806,318.812 139.059 M151.346 141.158 C 152.061 142.280,153.942 143.600,154.800 143.581 C 155.130 143.574,154.719 143.228,153.887 142.813 C 153.055 142.397,152.006 141.639,151.555 141.129 L 150.736 140.200 151.346 141.158 M323.300 142.287 C 323.905 142.378,324.400 142.621,324.400 142.827 C 324.400 143.032,324.602 143.200,324.849 143.200 C 325.159 143.200,325.144 143.015,324.800 142.600 C 324.526 142.270,323.829 142.027,323.251 142.060 L 322.200 142.120 323.300 142.287 M358.800 151.349 C 358.250 151.645,356.630 152.539,355.200 153.336 C 350.010 156.230,342.865 159.620,338.200 161.403 C 336.660 161.992,335.040 162.630,334.600 162.820 C 331.591 164.125,318.409 168.103,312.300 169.550 C 308.161 170.530,304.001 171.444,301.400 171.944 C 293.821 173.400,290.222 174.000,289.059 174.000 C 288.458 174.000,287.626 174.317,287.210 174.705 C 286.345 175.511,286.785 174.874,277.607 188.600 C 267.574 203.604,266.812 204.355,262.824 203.160 C 259.341 202.116,257.044 196.108,259.120 193.472 C 259.325 193.212,259.589 192.280,259.707 191.400 C 259.825 190.520,260.048 189.485,260.203 189.100 C 260.698 187.874,256.589 189.254,255.200 190.781 C 255.090 190.902,254.505 191.256,253.900 191.568 C 253.295 191.880,252.800 192.285,252.800 192.468 C 252.800 192.650,252.622 192.800,252.405 192.800 C 252.187 192.800,251.692 193.060,251.305 193.378 C 250.917 193.695,249.430 194.820,248.000 195.878 C 239.169 202.407,231.062 210.679,225.707 218.624 C 219.354 228.051,215.608 237.912,213.620 250.446 C 212.838 255.372,212.944 255.410,216.657 251.540 C 222.482 245.468,229.605 238.434,233.811 234.600 C 236.225 232.400,238.290 230.510,238.400 230.400 C 238.780 230.018,244.204 225.327,245.145 224.565 C 245.664 224.144,246.294 223.614,246.545 223.387 C 247.800 222.250,255.517 216.165,259.400 213.250 C 261.820 211.433,264.087 209.715,264.438 209.431 C 264.789 209.147,266.229 208.137,267.638 207.187 C 269.047 206.237,270.290 205.348,270.400 205.211 C 270.510 205.074,272.940 203.423,275.800 201.542 C 278.660 199.661,282.408 197.195,284.129 196.061 C 285.851 194.927,287.348 194.000,287.457 194.000 C 287.567 194.000,288.441 193.460,289.400 192.800 C 290.359 192.140,291.264 191.600,291.410 191.600 C 291.557 191.600,292.154 191.261,292.738 190.847 C 293.879 190.038,294.051 189.937,301.590 185.642 C 307.015 182.553,308.307 182.252,310.792 183.501 C 315.137 185.684,315.002 191.843,310.556 194.238 C 309.700 194.700,308.325 195.465,307.500 195.938 C 306.675 196.412,305.325 197.179,304.500 197.642 C 301.095 199.554,294.011 203.869,291.318 205.671 C 289.733 206.732,288.326 207.600,288.191 207.600 C 287.973 207.600,278.814 213.687,277.800 214.506 C 277.580 214.684,274.970 216.566,272.000 218.689 C 269.030 220.813,266.510 222.660,266.400 222.794 C 266.290 222.929,265.570 223.471,264.800 224.000 C 264.030 224.529,263.310 225.065,263.200 225.191 C 263.090 225.317,262.190 226.041,261.200 226.800 C 260.210 227.559,259.310 228.284,259.200 228.413 C 259.090 228.541,258.621 228.906,258.157 229.223 C 252.063 233.394,233.143 251.066,223.280 261.800 C 219.285 266.148,218.814 267.200,220.867 267.200 C 221.564 267.200,223.229 267.390,224.567 267.623 C 225.905 267.855,228.170 267.990,229.600 267.923 C 231.805 267.819,231.353 267.724,226.623 267.303 C 223.555 267.029,220.872 266.632,220.660 266.420 C 219.852 265.612,237.497 247.388,246.628 239.600 C 247.273 239.050,248.966 237.610,250.391 236.400 C 251.815 235.190,253.239 233.958,253.556 233.663 C 253.872 233.368,256.306 231.384,258.965 229.254 C 263.177 225.881,265.988 223.744,273.467 218.229 C 276.495 215.996,288.171 208.106,289.769 207.213 C 290.632 206.731,292.377 205.631,293.647 204.768 C 294.917 203.906,296.073 203.200,296.216 203.200 C 296.359 203.200,296.954 202.860,297.538 202.444 C 298.122 202.029,301.480 200.026,305.000 197.995 C 314.621 192.441,316.375 189.889,313.626 185.443 C 310.663 180.648,304.973 181.920,292.928 190.069 C 292.008 190.691,291.143 191.200,291.006 191.200 C 290.869 191.200,289.696 191.920,288.400 192.800 C 287.104 193.680,285.928 194.400,285.787 194.400 C 285.493 194.400,265.906 207.561,265.600 207.964 C 265.490 208.109,264.167 209.098,262.660 210.162 C 259.542 212.365,249.313 220.295,247.186 222.160 C 246.408 222.842,244.794 224.210,243.599 225.200 C 236.407 231.159,227.512 239.558,218.076 249.297 C 213.908 253.599,213.678 253.587,214.381 249.112 C 215.191 243.952,215.599 242.241,217.217 237.200 C 218.066 234.559,218.189 234.231,219.406 231.400 C 225.348 217.573,234.968 206.110,249.800 195.183 C 253.663 192.338,258.511 189.200,259.045 189.200 C 259.359 189.200,259.037 191.734,258.305 195.030 C 256.934 201.195,261.947 205.845,267.197 203.278 C 268.411 202.685,273.834 195.738,275.064 193.200 C 275.224 192.870,275.551 192.401,275.791 192.158 C 276.031 191.914,278.651 188.012,281.614 183.485 C 287.388 174.662,287.411 174.639,291.200 174.223 C 293.303 173.991,294.377 173.818,299.800 172.832 C 303.384 172.181,307.627 171.277,311.200 170.404 C 312.190 170.161,313.630 169.810,314.400 169.621 C 323.247 167.461,335.620 163.296,343.200 159.928 C 347.684 157.935,356.028 153.660,358.164 152.260 C 359.694 151.258,359.520 151.763,355.787 159.156 C 350.421 169.784,350.136 170.150,343.923 174.375 C 332.904 181.869,331.538 182.883,330.780 184.125 C 327.896 188.854,330.915 193.579,337.089 194.000 L 340.020 194.200 338.364 197.400 C 334.718 204.443,329.544 212.147,326.823 214.587 C 325.920 215.397,325.391 215.483,315.609 216.412 C 313.084 216.652,310.939 216.928,310.842 217.024 C 310.326 217.541,317.355 216.994,324.200 215.985 C 328.104 215.410,332.502 209.822,339.256 196.854 C 341.109 193.296,341.014 193.050,337.918 193.410 C 332.654 194.020,329.008 189.705,330.921 185.128 C 331.594 183.518,333.085 182.329,341.783 176.467 C 348.234 172.119,350.384 170.210,351.991 167.400 C 358.703 155.665,361.048 150.138,358.800 151.349 M313.400 156.800 L 312.600 157.144 313.400 157.166 C 313.840 157.178,314.470 157.013,314.800 156.800 C 315.595 156.286,314.596 156.286,313.400 156.800 M310.400 157.600 C 309.576 157.864,309.541 157.926,310.200 157.954 C 310.640 157.973,311.270 157.813,311.600 157.600 C 312.301 157.147,311.814 157.147,310.400 157.600 M307.000 158.400 C 305.893 158.682,305.877 158.709,306.800 158.747 C 307.350 158.769,308.070 158.613,308.400 158.400 C 309.081 157.960,308.729 157.960,307.000 158.400 M303.400 159.200 C 302.293 159.482,302.277 159.509,303.200 159.547 C 303.750 159.569,304.470 159.413,304.800 159.200 C 305.481 158.760,305.129 158.760,303.400 159.200 M299.200 160.000 L 297.800 160.295 299.200 160.341 C 299.970 160.367,300.870 160.213,301.200 160.000 C 301.927 159.530,301.433 159.530,299.200 160.000 M295.000 160.800 L 293.400 161.086 294.800 161.115 C 295.570 161.131,296.560 160.989,297.000 160.800 C 297.943 160.395,297.262 160.395,295.000 160.800 M290.000 161.600 L 288.200 161.880 289.800 161.900 C 290.680 161.911,291.850 161.776,292.400 161.600 C 293.663 161.195,292.602 161.195,290.000 161.600 M284.200 162.400 L 282.200 162.674 284.000 162.690 C 284.990 162.698,286.340 162.568,287.000 162.400 C 288.577 161.999,287.125 161.999,284.200 162.400 M153.919 162.945 C 152.666 163.501,150.800 165.163,150.800 165.724 C 150.800 165.935,151.184 165.620,151.653 165.024 C 153.292 162.940,151.806 163.013,196.800 162.796 L 239.000 162.593 197.000 162.529 C 165.100 162.480,154.740 162.580,153.919 162.945 M240.310 163.601 C 242.008 164.637,242.564 164.636,241.000 163.600 C 240.340 163.163,239.620 162.805,239.400 162.804 C 239.180 162.804,239.589 163.162,240.310 163.601 M280.027 163.838 C 279.349 164.410,277.612 166.615,276.167 168.738 C 274.723 170.862,273.818 172.330,274.156 172.000 C 274.494 171.670,275.812 169.875,277.085 168.010 C 278.358 166.146,280.012 164.211,280.759 163.710 C 281.507 163.210,281.925 162.800,281.690 162.800 C 281.454 162.800,280.706 163.267,280.027 163.838 M150.267 166.667 C 149.908 167.026,149.938 170.083,150.306 170.662 C 150.468 170.916,150.600 170.061,150.600 168.762 C 150.600 167.463,150.585 166.400,150.567 166.400 C 150.548 166.400,150.413 166.520,150.267 166.667 M267.905 170.283 C 268.402 170.379,269.122 170.375,269.505 170.275 C 269.887 170.175,269.480 170.096,268.600 170.101 C 267.720 170.105,267.407 170.187,267.905 170.283 M264.300 171.426 C 263.255 171.970,262.400 172.505,262.400 172.614 C 262.400 172.793,266.360 170.923,266.767 170.552 C 267.262 170.101,265.961 170.562,264.300 171.426 M150.809 171.830 C 150.798 172.345,152.255 173.722,153.474 174.350 C 154.976 175.124,155.069 174.838,153.600 173.961 C 152.830 173.501,151.889 172.737,151.509 172.263 C 151.129 171.788,150.814 171.594,150.809 171.830 M254.884 176.662 C 252.840 177.894,251.252 178.986,251.356 179.089 C 251.459 179.193,252.321 178.753,253.272 178.113 C 254.222 177.472,255.855 176.457,256.900 175.857 C 257.945 175.257,258.800 174.684,258.800 174.583 C 258.800 174.301,258.827 174.286,254.884 176.662 M176.300 175.100 C 187.575 175.159,206.025 175.159,217.300 175.100 C 228.575 175.041,219.350 174.993,196.800 174.993 C 174.250 174.993,165.025 175.041,176.300 175.100 M247.571 181.233 C 245.937 182.351,244.330 183.549,244.000 183.895 C 243.465 184.456,249.641 180.364,250.580 179.535 C 251.590 178.644,250.250 179.400,247.571 181.233 M241.585 185.629 L 240.200 186.858 241.700 185.781 C 243.026 184.830,243.457 184.400,243.085 184.400 C 243.022 184.400,242.347 184.953,241.585 185.629 M238.000 188.434 L 236.200 190.065 238.100 188.584 C 239.766 187.286,240.259 186.797,239.900 186.801 C 239.845 186.802,238.990 187.536,238.000 188.434 M234.571 191.303 L 233.400 192.597 234.600 191.599 C 235.260 191.049,235.875 190.555,235.967 190.500 C 236.058 190.445,236.045 190.312,235.938 190.204 C 235.830 190.096,235.215 190.591,234.571 191.303 M228.186 197.214 C 225.561 199.846,223.508 202.000,223.625 202.000 C 223.912 202.000,233.216 192.683,233.073 192.540 C 233.011 192.478,230.812 194.581,228.186 197.214 M222.200 203.600 C 221.568 204.260,221.219 204.790,221.425 204.778 C 221.778 204.757,223.839 202.400,223.505 202.400 C 223.420 202.400,222.832 202.940,222.200 203.600 M219.526 206.900 C 217.790 209.053,216.292 211.200,216.524 211.200 C 216.623 211.200,217.719 209.850,218.961 208.200 C 221.397 204.963,221.760 204.128,219.526 206.900 M213.846 215.000 C 213.491 215.550,212.909 216.495,212.553 217.100 L 211.905 218.200 212.710 217.226 C 213.660 216.076,214.921 214.000,214.669 214.000 C 214.571 214.000,214.201 214.450,213.846 215.000 M301.400 217.756 C 295.952 218.451,293.600 220.399,293.600 224.214 C 293.600 227.942,295.003 229.307,301.837 232.227 C 307.948 234.838,308.800 235.250,308.800 235.598 C 308.800 236.111,297.746 246.699,294.674 249.128 C 291.283 251.809,291.482 251.756,285.400 251.606 C 281.472 251.510,270.346 248.691,265.000 246.438 C 263.568 245.835,260.217 244.321,259.505 243.956 C 258.147 243.260,254.992 243.550,253.596 244.500 C 247.953 248.341,250.283 254.949,260.100 262.948 C 261.145 263.800,262.000 264.642,262.000 264.820 C 262.000 265.416,256.231 266.765,250.200 267.579 L 247.800 267.902 249.800 267.951 C 251.935 268.003,256.735 267.190,260.500 266.137 C 263.112 265.407,263.489 264.580,261.694 263.519 C 258.760 261.786,252.563 254.922,251.384 252.099 C 249.441 247.450,254.386 242.540,259.081 244.457 C 259.697 244.708,261.100 245.327,262.200 245.832 C 271.938 250.305,286.868 253.440,291.240 251.931 C 293.921 251.005,309.862 236.585,309.477 235.432 C 309.400 235.199,307.371 234.145,304.968 233.090 C 295.314 228.850,293.998 227.800,294.001 224.346 C 294.006 220.234,297.635 218.058,304.633 217.970 C 305.935 217.954,307.810 217.797,308.800 217.620 C 311.782 217.090,305.758 217.201,301.400 217.756 M209.814 222.014 C 208.778 224.021,208.003 225.737,208.093 225.826 C 208.183 225.916,209.093 224.336,210.114 222.314 C 211.136 220.293,211.911 218.577,211.835 218.502 C 211.760 218.427,210.851 220.007,209.814 222.014 M322.539 239.298 C 317.550 244.698,308.673 253.536,305.636 256.129 C 300.949 260.129,299.859 261.159,302.200 259.374 C 306.878 255.806,314.216 248.813,320.600 241.839 C 322.580 239.676,324.560 237.759,325.000 237.579 C 325.624 237.323,325.655 237.245,325.139 237.225 C 324.775 237.211,323.605 238.144,322.539 239.298 M203.429 238.629 C 203.281 239.215,203.251 239.784,203.361 239.894 C 203.471 240.004,203.681 239.615,203.829 239.029 C 203.976 238.442,204.006 237.873,203.896 237.763 C 203.786 237.653,203.576 238.042,203.429 238.629 M202.600 242.400 C 202.448 243.091,202.414 243.747,202.524 243.857 C 202.634 243.967,202.848 243.491,203.000 242.800 C 203.152 242.109,203.186 241.453,203.076 241.343 C 202.966 241.233,202.752 241.709,202.600 242.400 M201.782 246.982 C 201.629 248.002,201.594 248.927,201.704 249.037 C 201.814 249.147,202.029 248.402,202.182 247.382 C 202.335 246.361,202.370 245.437,202.260 245.327 C 202.150 245.217,201.935 245.961,201.782 246.982 M201.363 258.000 C 201.363 261.630,201.423 263.115,201.498 261.300 C 201.572 259.485,201.572 256.515,201.498 254.700 C 201.423 252.885,201.363 254.370,201.363 258.000 M298.481 261.772 C 296.623 263.085,296.362 263.461,297.931 262.562 C 298.663 262.143,299.450 261.575,299.680 261.300 C 300.271 260.593,299.993 260.702,298.481 261.772 M294.200 263.600 L 293.400 263.944 294.200 263.966 C 294.640 263.978,295.270 263.813,295.600 263.600 C 296.395 263.086,295.396 263.086,294.200 263.600 M286.313 264.295 C 287.476 264.376,289.276 264.376,290.313 264.293 C 291.351 264.211,290.400 264.145,288.200 264.146 C 286.000 264.147,285.151 264.214,286.313 264.295 M281.287 267.369 C 281.043 267.904,280.031 268.940,279.037 269.671 C 278.044 270.402,277.224 271.158,277.216 271.352 C 277.194 271.844,280.410 269.139,281.361 267.864 C 281.793 267.286,282.053 266.719,281.938 266.605 C 281.824 266.490,281.531 266.834,281.287 267.369 M236.263 268.465 C 238.623 268.670,241.894 268.670,244.063 268.464 C 247.453 268.142,247.076 268.109,240.000 268.110 C 232.679 268.111,232.450 268.133,236.263 268.465 M200.372 270.092 C 198.682 272.323,198.351 272.800,198.493 272.800 C 198.782 272.800,201.674 269.141,201.513 268.979 C 201.419 268.886,200.906 269.387,200.372 270.092 M274.900 272.626 C 273.965 273.187,273.200 273.740,273.200 273.855 C 273.200 274.071,275.899 272.538,276.580 271.936 C 277.267 271.328,276.627 271.591,274.900 272.626 M195.892 276.100 C 192.932 280.087,192.000 281.466,192.000 281.857 C 192.000 282.041,192.802 281.023,193.782 279.596 C 194.762 278.168,196.204 276.145,196.986 275.100 C 197.768 274.055,198.326 273.200,198.226 273.200 C 198.127 273.200,197.076 274.505,195.892 276.100 M208.496 279.405 C 207.332 281.203,207.600 281.200,208.973 279.400 C 209.560 278.630,209.897 278.002,209.720 278.005 C 209.544 278.008,208.993 278.638,208.496 279.405 M213.400 278.400 C 214.060 278.568,214.960 278.714,215.400 278.725 L 216.200 278.744 215.400 278.400 C 214.960 278.211,214.060 278.065,213.400 278.075 L 212.200 278.095 213.400 278.400 M259.200 278.400 C 258.436 278.894,259.258 278.894,260.800 278.400 L 261.800 278.080 260.800 278.046 C 260.250 278.027,259.530 278.187,259.200 278.400 M219.400 279.223 C 221.537 279.665,223.004 279.650,221.600 279.200 C 221.050 279.024,219.970 278.883,219.200 278.886 L 217.800 278.892 219.400 279.223 M254.800 279.200 L 253.800 279.520 254.800 279.520 C 255.350 279.520,256.250 279.376,256.800 279.200 L 257.800 278.880 256.800 278.880 C 256.250 278.880,255.350 279.024,254.800 279.200 M227.200 280.017 C 228.410 280.184,230.300 280.313,231.400 280.304 L 233.400 280.287 231.200 279.983 C 229.990 279.816,228.100 279.687,227.000 279.696 L 225.000 279.713 227.200 280.017 M246.800 280.000 L 245.000 280.280 246.800 280.310 C 247.790 280.327,249.410 280.197,250.400 280.020 L 252.200 279.700 250.400 279.710 C 249.410 279.716,247.790 279.846,246.800 280.000 M206.196 282.391 C 201.746 288.724,197.620 294.787,197.208 295.600 C 196.306 297.383,197.410 295.903,200.792 290.800 C 202.614 288.050,204.826 284.850,205.709 283.690 C 206.591 282.529,207.241 281.507,207.152 281.419 C 207.064 281.331,206.633 281.768,206.196 282.391 M187.117 288.700 C 186.573 289.525,185.907 290.650,185.637 291.200 L 185.146 292.200 185.953 291.200 C 186.877 290.055,188.537 287.200,188.279 287.200 C 188.184 287.200,187.661 287.875,187.117 288.700 M183.400 294.800 C 183.059 295.460,182.869 296.000,182.979 296.000 C 183.089 296.000,183.459 295.460,183.800 294.800 C 184.141 294.140,184.331 293.600,184.221 293.600 C 184.111 293.600,183.741 294.140,183.400 294.800 M181.800 297.600 C 181.459 298.260,181.269 298.800,181.379 298.800 C 181.489 298.800,181.859 298.260,182.200 297.600 C 182.541 296.940,182.731 296.400,182.621 296.400 C 182.511 296.400,182.141 296.940,181.800 297.600 M180.459 299.900 C 177.191 306.092,176.660 307.200,176.958 307.200 C 177.031 307.200,178.014 305.400,179.141 303.200 C 180.269 301.000,181.110 299.200,181.010 299.200 C 180.910 299.200,180.662 299.515,180.459 299.900 M194.214 300.235 C 193.841 300.804,193.627 301.361,193.739 301.472 C 193.850 301.583,194.229 301.118,194.581 300.437 C 195.359 298.933,195.144 298.815,194.214 300.235 M192.614 303.035 C 192.241 303.604,192.027 304.161,192.139 304.272 C 192.250 304.383,192.629 303.918,192.981 303.237 C 193.759 301.733,193.544 301.615,192.614 303.035 M190.721 306.500 C 190.229 307.435,188.888 310.122,187.741 312.471 C 186.531 314.950,185.294 316.936,184.793 317.204 C 184.319 317.457,184.036 317.769,184.163 317.897 C 184.738 318.471,186.286 316.173,189.007 310.708 C 191.687 305.324,192.872 302.416,190.721 306.500 M175.200 314.196 C 175.200 314.939,176.510 316.777,177.480 317.394 C 178.542 318.069,178.532 318.038,177.300 316.806 C 176.585 316.090,176.000 315.267,176.000 314.976 C 176.000 314.685,175.820 314.336,175.600 314.200 C 175.380 314.064,175.200 314.062,175.200 314.196 M179.338 318.494 C 179.592 318.656,180.430 318.788,181.200 318.788 C 181.970 318.788,182.808 318.656,183.062 318.494 C 183.316 318.332,182.478 318.200,181.200 318.200 C 179.922 318.200,179.084 318.332,179.338 318.494 M87.271 319.800 C 87.227 320.680,87.099 322.120,86.985 323.000 C 86.806 324.390,86.835 324.471,87.207 323.618 C 87.442 323.078,87.571 321.638,87.493 320.418 C 87.383 318.688,87.334 318.552,87.271 319.800 M80.617 320.800 C 80.447 321.350,79.933 322.210,79.475 322.710 C 77.548 324.815,77.703 324.800,57.326 324.800 C 36.021 324.800,37.555 324.528,38.732 328.094 C 41.032 335.068,46.296 340.131,53.800 342.590 C 64.383 346.057,76.998 343.172,82.188 336.098 C 84.536 332.897,86.806 327.700,86.773 325.600 C 86.764 325.050,86.355 325.950,85.864 327.600 C 84.685 331.560,83.072 334.448,80.458 337.278 C 70.681 347.866,46.892 344.468,40.710 331.600 C 39.685 329.468,38.418 326.111,38.406 325.500 C 38.403 325.335,46.970 325.200,57.446 325.200 C 76.358 325.200,76.502 325.194,78.065 324.315 C 79.706 323.393,81.390 321.161,81.096 320.299 C 81.002 320.025,80.786 320.250,80.617 320.800 M318.222 323.822 C 318.072 324.625,318.038 325.372,318.148 325.482 C 318.258 325.592,318.472 325.025,318.622 324.222 C 318.773 323.419,318.806 322.673,318.696 322.563 C 318.586 322.453,318.373 323.019,318.222 323.822 M98.600 327.600 C 98.448 328.291,98.414 328.947,98.524 329.057 C 98.634 329.167,98.848 328.691,99.000 328.000 C 99.152 327.309,99.186 326.653,99.076 326.543 C 98.966 326.433,98.752 326.909,98.600 327.600 M317.400 327.200 C 317.250 327.673,317.217 328.150,317.327 328.260 C 317.437 328.370,317.650 328.073,317.800 327.600 C 317.950 327.127,317.983 326.650,317.873 326.540 C 317.763 326.430,317.550 326.727,317.400 327.200 M313.590 334.708 C 312.595 335.969,310.650 337.855,309.267 338.900 C 306.484 341.004,306.293 341.462,308.967 339.623 C 310.722 338.415,314.496 334.516,315.222 333.159 C 315.883 331.924,315.506 332.282,313.590 334.708 M97.000 333.600 C 96.850 334.073,96.817 334.550,96.927 334.660 C 97.037 334.770,97.250 334.473,97.400 334.000 C 97.550 333.527,97.583 333.050,97.473 332.940 C 97.363 332.830,97.150 333.127,97.000 333.600 M92.667 342.554 C 92.323 343.079,92.152 343.619,92.287 343.754 C 92.626 344.092,298.032 344.011,298.885 343.672 C 299.262 343.522,252.952 343.446,195.974 343.503 L 92.378 343.606 93.035 342.603 C 93.396 342.051,93.602 341.600,93.492 341.600 C 93.382 341.600,93.011 342.029,92.667 342.554 M301.200 342.800 C 300.376 343.064,300.341 343.126,301.000 343.154 C 301.440 343.173,302.070 343.013,302.400 342.800 C 303.101 342.347,302.614 342.347,301.200 342.800 " stroke="none" fill="#8a8262" fill-rule="evenodd"></path></g></svg>